<?xml version="1.0" standalone="yes"?>
<svg xmlns="http://www.w3.org/2000/svg" width="512" height="512">
<path style="fill:#000000; stroke:none;" d="M0 0L0 134C8.02402 126.836 15.7495 128 26 128L64 128L64 84C64 77.9224 62.8271 70.7534 68.1088 66.4337C73.5999 61.9427 84.3406 64 91 64L151 64L385 64L477 64C487.688 64 503.901 60.4737 511 70C513.599 63.8061 512 54.6859 512 48L512 0L0 0z"/>
<path style="fill:#566065; stroke:none;" d="M64 119C68.2999 113.811 70.3474 107.017 73.2585 101C78.9996 89.1333 86.3491 76.6731 90 64C83.7782 64 73.4427 62.0312 68.1088 65.7423C63.0982 69.2284 64 75.6693 64 81L64 119z"/>
<path style="fill:#555f64; stroke:none;" d="M64 128C59.6286 128 53.2781 126.835 49.213 128.603C43.6403 131.028 40.2127 143.685 38 149L64 149C68.5269 133.286 79.9057 119.704 84.3627 104C86.0229 98.1505 85 91.0389 85 85C87.4407 84.9914 90.4493 85.3548 92.6096 83.9722C97.8256 80.634 100.701 69.5292 103 64C99.4699 64 93.6735 62.9081 90.6373 65.0278C86.5043 67.9132 84.8503 75.6411 82.7415 80C75.7542 94.4426 64.0108 111.754 64 128z"/>
<path style="fill:#545e63; stroke:none;" d="M93 85L119 85C122.388 85 127.609 85.9379 130.582 83.9722C135.17 80.9382 139.07 69.2177 140 64L114 64C110.803 64 106.221 63.2189 103.39 65.0278C98.4422 68.1894 95.2144 79.6813 93 85z"/>
<path style="fill:#515b60; stroke:none;" d="M140 64C137.906 71.268 133.743 77.929 131 85L166 85C170.13 85 176.982 86.2863 180.61 83.9722C185.914 80.5887 188.703 69.5999 191 64L140 64z"/>
<path style="fill:#4e585d; stroke:none;" d="M181 85L207 85C210.423 85 215.586 85.9199 218.606 83.9722C223.438 80.857 226.818 69.2411 229 64L203 64C199.577 64 194.414 63.0801 191.394 65.0278C186.562 68.1429 183.182 79.7589 181 85z"/>
<path style="fill:#4c565b; stroke:none;" d="M219 85L236 85C238.441 84.995 241.447 85.3519 243.61 83.9722C248.824 80.6458 251.704 69.5215 254 64L237 64C234.559 64.005 231.553 63.6481 229.39 65.0278C224.086 68.4114 221.298 79.4 219 85z"/>
<path style="fill:#4a545a; stroke:none;" d="M244 85L270 85C273.388 85 278.609 85.9379 281.582 83.9722C286.17 80.9382 290.07 69.2177 291 64L265 64C261.803 64 257.221 63.2189 254.39 65.0278C249.442 68.1895 246.214 79.6812 244 85z"/>
<path style="fill:#485257; stroke:none;" d="M291 64C288.906 71.268 284.743 77.929 282 85L308 85C311.285 85 316.515 85.96 319.363 83.9722C324.286 80.5348 327.413 69.5522 329 64L291 64z"/>
<path style="fill:#455055; stroke:none;" d="M320 85L347 85C350.028 85 354.734 85.8416 357.351 83.9722C359.235 82.6268 359.956 80.0083 360.861 77.9992C362.965 73.3289 365.578 68.937 367 64L341 64C337.722 64 332.476 63.0364 329.638 65.0278C325.084 68.2232 321.504 79.7779 320 85z"/>
<path style="fill:#434e53; stroke:none;" d="M358 85L375 85C377.334 84.9952 380.333 85.389 382.363 83.9722C387.172 80.6147 390.433 69.4413 392 64C385.494 64 374.311 61.8185 368.39 64.6034C362.959 67.1581 359.475 79.6075 358 85z"/>
<path style="fill:#414c52; stroke:none;" d="M383 85C389.506 85 400.689 87.1815 406.61 84.3966C412.041 81.8419 415.525 69.3924 417 64L400 64C397.666 64.0048 394.666 63.6108 392.637 65.0278C387.959 68.2953 384.533 79.6775 383 85z"/>
<path style="fill:#3f4b50; stroke:none;" d="M408 85L434 85C437.284 85 442.516 85.9604 445.363 83.9722C450.041 80.7048 453.467 69.3225 455 64L428 64C424.971 64 420.266 63.1584 417.649 65.0278C415.765 66.3732 415.044 68.9917 414.139 71.0008C412.035 75.6711 409.422 80.0629 408 85z"/>
<path style="fill:#3d484e; stroke:none;" d="M446 85L463 85C465.334 84.9952 468.333 85.389 470.363 83.9722C475.286 80.5348 478.413 69.5522 480 64L463 64C460.666 64.0048 457.667 63.6111 455.637 65.0278C450.828 68.3853 447.567 79.5586 446 85z"/>
<path style="fill:#3b474c; stroke:none;" d="M471 85L491 85L491 121C498.946 111.41 502.738 97.1352 508.248 86C510.659 81.1256 513.439 75.551 511.258 70.0154C508.045 61.8616 496.952 63.9996 490 64C487.181 64.0002 483.088 63.3089 480.638 65.0278C476.084 68.2232 472.504 79.7779 471 85z"/>
<path style="fill:#3a454b; stroke:none;" d="M511 79C506.638 89.4778 501.43 99.6809 496.691 110C494.896 113.91 492.308 117.756 491.39 122C489.639 130.1 491 139.726 491 148C495.3 142.811 497.347 136.017 500.258 130C504.006 122.254 509.79 113.416 511.61 105C512.573 100.542 512 95.5375 512 91C512 87.0172 512.552 82.6987 511 79z"/>
<path style="fill:#bfc2c4; stroke:none;" d="M85 85L85 409C88.3062 401.121 86 388.534 86 380L86 314L86 86L194 86C190.301 84.448 185.983 85 182 85L161 85L85 85z"/>
<path style="fill:#b4b8ba; stroke:none;" d="M194 85C201.4 88.1049 212.993 86 221 86L281 86L490 86L490 408C493.306 400.121 491 387.534 491 379L491 313L491 85L194 85z"/>
<path style="fill:#f5f5f5; stroke:none;" d="M86 86L86 292L86 367C86 379.844 87.0674 393.215 85.8302 406C85.1532 412.997 82.1718 419.19 81 426L101 426C103.606 426 107.164 426.576 109.582 425.397C112.763 423.846 114.296 417.995 115.742 415C120.664 404.8 125.648 394.454 130 384C123.12 384 114.464 385.599 109.419 379.811C104.154 373.77 106 363.397 106 356L106 297L106 274C106.008 268.765 106.085 263.237 110.225 259.394C115.887 254.137 125.909 256 133 256L174 256C178.157 256 185.8 257.46 189.363 254.972C194.235 251.571 198 239.609 199 234C190.492 227.859 192 219.467 192 210L192 155C192 147.388 189.92 136.926 196.109 131.228C200.72 126.983 207.211 128 213 128L250 128C254.181 113.488 263.189 99.9564 269 86L86 86z"/>
<path style="fill:#f4f4f4; stroke:none;" d="M249 129C256.659 134.529 258.348 144.743 247.996 148.852C238.515 152.615 224.103 150 214 150L214 170C221.584 170 232.19 168.108 238.985 172.09C247.106 176.848 247.019 187.287 237.996 190.991C231.22 193.772 221.23 192 214 192L214 213C224.118 213 237.252 210.772 247 213.573C251.818 214.957 256.363 219.695 255.728 225C255.142 229.894 250.629 233.706 246 234.656C240.004 235.886 233.102 235 227 235C217.866 235 207.923 236.125 199 234C196.802 241.633 192.195 248.382 190 256L248 256C254.935 256 265.926 253.925 271.956 257.894C280.411 263.458 278 276.348 278 285L278 355C278 363.319 280.278 375.529 272.892 381.427C269.139 384.424 264.516 384 260 384L233 384L159 384L139 384C136.298 384.001 132.787 383.499 130.39 385.028C126.745 387.353 125.396 393.287 123.691 397C119.371 406.408 113.402 415.889 111 426L299 426L352 426C357.974 426 368.151 427.964 373.61 425.397C377.319 423.652 378.912 417.466 380.424 414C384.75 404.086 391.005 394.398 394 384L356 384L323 384C317.991 384 311.837 384.946 307.001 383.486C295.911 380.139 297.195 367 307.001 363.009C313.542 360.347 323.039 362 330 362L380 362L397 362C399.33 361.995 402.338 362.392 404.362 360.972C408.891 357.795 411.897 347.05 414 342L368 342L338 342C328.867 342 314.293 344.746 306.004 340.543C297.555 336.259 296.25 324.521 306.004 320.742C313.447 317.859 325.078 320 333 320L394 320L414 320C416.953 320 420.992 320.645 423.61 318.972C428.558 315.811 431.786 304.319 434 299L329 299C320.364 299 296.788 302.13 298.746 287.001C300.589 272.764 324.281 277 334 277L413 277L434 277C436.954 277 440.99 277.643 443.61 275.972C447.255 273.647 448.604 267.713 450.309 264C454.913 253.972 459.704 244.029 464.309 234C469.522 222.647 474.705 211.194 480.248 200C483.445 193.543 488.086 186.05 489.61 179C491.686 169.396 490 157.814 490 148L490 86L329 86L286 86C281.421 86 273.393 84.4742 269.39 87.0278C265.745 89.3535 264.396 95.2868 262.691 99C258.134 108.926 252.524 118.651 249 129z"/>
<path style="fill:#555e63; stroke:none;" d="M84 104C79.6377 114.478 74.4296 124.681 69.6914 135C67.8958 138.91 65.308 142.756 64.3904 147C62.6394 155.1 64 164.726 64 173C68.2999 167.811 70.3474 161.017 73.2585 155C77.0058 147.254 82.7902 138.416 84.6096 130C85.5732 125.542 85 120.537 85 116C85 112.017 85.552 107.699 84 104z"/>
<path style="fill:#39444a; stroke:none;" d="M511 106C506.638 116.478 501.43 126.681 496.691 137C494.896 140.91 492.308 144.756 491.39 149C489.639 157.1 491 166.726 491 175C495.3 169.811 497.347 163.017 500.258 157C504.053 149.156 509.517 140.515 511.471 132C512.501 127.511 512 122.575 512 118C512 114.017 512.552 109.699 511 106z"/>
<path style="fill:#596267; stroke:none;" d="M0 176C4.55765 169.978 7.15737 161.863 10.3086 155C14.4512 145.978 19.1855 137.162 23 128C17.4374 128 8.90131 126.408 4.1088 129.742C-0.383056 132.867 0.00187175 138.148 0 143L0 176z"/>
<path style="fill:#586166; stroke:none;" d="M0 203C4.55764 196.978 7.15737 188.863 10.3086 182C15.4568 170.788 21 161.565 21 149C25.6363 149 32.4808 150.27 36.787 148.397C42.3597 145.972 45.7873 133.315 48 128L31 128C28.5586 128.005 25.5532 127.648 23.3904 129.028C18.3624 132.235 16.2262 141.864 13.7415 147C9.23743 156.31 2.41618 166.815 0.378858 177C-1.25833 185.184 0 194.666 0 203z"/>
<path style="fill:#70797d; stroke:none;" d="M114.667 128.333C114.222 128.778 115.278 128.722 115.333 128.667C115.778 128.222 114.722 128.278 114.667 128.333z"/>
<path style="fill:#515b60; stroke:none;" d="M107 189C112.837 181.954 116.14 171.35 119.861 163C125.091 151.265 131.12 139.895 136 128C128.725 128 117.264 125.886 111.109 130.564C105.957 134.479 107 141.288 107 147L107 189z"/>
<path style="fill:#505b60; stroke:none;" d="M107 216C110.818 211.391 112.606 205.335 115.248 200C119.508 191.396 125.731 181.45 127.621 172C129.075 164.735 128 156.395 128 149C136.867 149 141.589 150 149 155C151.836 148.189 154.801 141.081 159 135C153.753 131.571 143.771 125.835 137.214 128.607C134.281 129.847 133.329 133.345 132.139 136C129.881 141.036 127.387 145.956 125.139 151C119.612 163.402 110.265 176.704 107.39 190C105.639 198.1 107 207.726 107 216z"/>
<path style="fill:#abb0b2; stroke:none;" d="M143 128C144.248 128.685 144.548 128.749 146 129C144.752 128.315 144.452 128.251 143 128z"/>
<path style="fill:#a6aaad; stroke:none;" d="M199 128L200 129L199 128z"/>
<path style="fill:#4c565b; stroke:none;" d="M192 196C197.122 189.66 199.907 180.41 203.309 173C210.169 158.057 218.054 143.325 224 128C216.168 128 202.661 125.398 196.214 130.653C190.81 135.057 192 142.816 192 149L192 196z"/>
<path style="fill:#4a545a; stroke:none;" d="M215 149L234 149C238.633 149 244.604 149.965 248.995 148.258C255.914 145.569 257.846 136.635 252.606 131.394C247.571 126.359 238.467 127.987 232 128C229.276 128.006 225.861 127.582 223.699 129.603C219.548 133.484 215.978 143.512 215 149z"/>
<path style="fill:#a5aaad; stroke:none;" d="M248 128L249 129L248 128z"/>
<path style="fill:#b5b8ba; stroke:none;" d="M284 128L285 129L284 128z"/>
<path style="fill:#465156; stroke:none;" d="M279 198C282.605 193.648 284.28 188.04 286.756 183C290.383 175.617 295.871 167.041 297.61 159C298.441 155.155 298 150.911 298 147C298 139.23 298.38 127.35 287.001 128.319C278.874 129.011 278.003 136.552 278 143L278 177C278 183.97 277.377 191.183 279 198z"/>
<path style="fill:#7f868a; stroke:none;" d="M290 128L291 129L290 128z"/>
<path style="fill:#b5b9ba; stroke:none;" d="M291 128L292 129L291 128z"/>
<path style="fill:#a2a7a9; stroke:none;" d="M327 128L328 129L327 128z"/>
<path style="fill:#434e54; stroke:none;" d="M309 205L306 199L304 199C301.442 205.145 294.497 214.127 295.524 221C296.07 224.656 298.992 228.021 301 231C307.191 224.821 310.061 213.875 313.781 206C320.219 192.37 326.725 178.769 332.861 165C335.36 159.393 338.855 153.993 340.39 148C341.421 143.978 341.787 137.8 339.821 134.019C336.817 128.241 329.29 126.518 324.214 130.653C317.281 136.3 320 150.08 320 158C320 167.178 322.036 179.159 319.49 188C317.75 194.043 312.488 199.829 309 205z"/>
<path style="fill:#8f9599; stroke:none;" d="M333 128L334 129L333 128z"/>
<path style="fill:#c6cacb; stroke:none;" d="M334 128L335 129L334 128z"/>
<path style="fill:#c5c8c9; stroke:none;" d="M369 128L370 129L369 128z"/>
<path style="fill:#636c70; stroke:none;" d="M370.667 128.333C370.222 128.778 371.278 128.722 371.333 128.667C371.778 128.222 370.722 128.278 370.667 128.333z"/>
<path style="fill:#414c52; stroke:none;" d="M363 180C369.325 172.338 372.376 160.915 376.756 152C378.794 147.853 382.743 142.334 383.291 137.715C384.359 128.708 371.6 126.221 366.228 131.303C362.192 135.122 363 140.955 363 146L363 180z"/>
<path style="fill:#a0a6a9; stroke:none;" d="M376 128L377 129L376 128z"/>
<path style="fill:#a2a7aa; stroke:none;" d="M430 128C431.248 128.685 431.548 128.749 433 129C431.752 128.315 431.452 128.251 430 128z"/>
<path style="fill:#3e494f; stroke:none;" d="M413 181C417.558 174.978 420.157 166.863 423.309 160C428.202 149.343 433.755 138.942 438 128C433.166 128.208 428.459 129.095 424 131.044C403.529 139.992 402.01 164.335 413 181z"/>
<path style="fill:#3d484e; stroke:none;" d="M423 188C425.68 181.563 428.823 175.209 432 169C425.133 162.8 425.131 153.235 435.004 149.854C443.558 146.925 453.432 151.111 461.985 148.347C469.168 146.026 471.137 136.482 465.772 131.279C462.268 127.88 457.543 128.007 453 128C448.938 127.993 441.956 126.689 438.418 129.028C435.707 130.821 434.613 135.213 433.244 138C429.196 146.236 425.246 154.589 421.576 163C419.458 167.854 414.229 174.519 414.647 179.996C414.979 184.348 419.447 186.622 423 188z"/>
<path style="fill:#8a9195; stroke:none;" d="M461 128L462 129L461 128z"/>
<path style="fill:#c4c7c8; stroke:none;" d="M462 128L463 129L462 128z"/>
<path style="fill:#abb0b2; stroke:none;" d="M148 129L149 130L148 129z"/>
<path style="fill:#8d9396; stroke:none;" d="M197 129L198 130L197 129z"/>
<path style="fill:#8b9295; stroke:none;" d="M250 129L251 130L250 129z"/>
<path style="fill:#a8adaf; stroke:none;" d="M282 129L283 130L282 129z"/>
<path style="fill:#aaaeb0; stroke:none;" d="M293 129L294 130L293 129z"/>
<path style="fill:#878d91; stroke:none;" d="M325 129L326 130L325 129z"/>
<path style="fill:#868d90; stroke:none;" d="M378 129L379 130L378 129z"/>
<path style="fill:#a2a7aa; stroke:none;" d="M427 129L428 130L427 129z"/>
<path style="fill:#c7cacb; stroke:none;" d="M464 129L465 130L464 129z"/>
<path style="fill:#a9adb0; stroke:none;" d="M110 130L111 131L110 130z"/>
<path style="fill:#80878b; stroke:none;" d="M150 130L151 131L150 130z"/>
<path style="fill:#c5c8c9; stroke:none;" d="M151 130L152 131L151 130z"/>
<path style="fill:#7a8186; stroke:none;" d="M281 130L282 131L281 130z"/>
<path style="fill:#777f82; stroke:none;" d="M294 130L295 131L294 130z"/>
<path style="fill:#9ba1a4; stroke:none;" d="M337 130L338 131L337 130z"/>
<path style="fill:#a6abae; stroke:none;" d="M366 130L367 131L366 130z"/>
<path style="fill:#bdc0c2; stroke:none;" d="M424 130L425 131L424 130z"/>
<path style="fill:#737b7f; stroke:none;" d="M425 130L426 131L425 130z"/>
<path style="fill:#9fa4a7; stroke:none;" d="M465 130L466 131L465 130z"/>
<path style="fill:#545e63; stroke:none;" d="M84 131C79.6377 141.478 74.4296 151.681 69.6914 162C67.8958 165.911 65.308 169.756 64.3904 174C62.6394 182.1 64 191.726 64 200C68.2999 194.811 70.3474 188.017 73.2585 182C77.0058 174.254 82.7902 165.416 84.6096 157C85.5732 152.542 85 147.537 85 143C85 139.017 85.552 134.699 84 131z"/>
<path style="fill:#9fa5a7; stroke:none;" d="M109 131L110 132L109 131z"/>
<path style="fill:#bfc2c4; stroke:none;" d="M153 131L154 132L153 131z"/>
<path style="fill:#999ea1; stroke:none;" d="M338 131L339 132L338 131z"/>
<path style="fill:#969c9f; stroke:none;" d="M365 131L366 132L365 131z"/>
<path style="fill:#b6b9bc; stroke:none;" d="M422 131L423 132L422 131z"/>
<path style="fill:#949a9d; stroke:none;" d="M466 131L467 132L466 131z"/>
<path style="fill:#bdc1c2; stroke:none;" d="M108 132L109 133L108 132z"/>
<path style="fill:#7f868a; stroke:none;" d="M279 132L280 133L279 132z"/>
<path style="fill:#80878a; stroke:none;" d="M296 132L297 133L296 132z"/>
<path style="fill:#b8bcbe; stroke:none;" d="M339 132L340 133L339 132z"/>
<path style="fill:#b7babc; stroke:none;" d="M364 132L365 133L364 132z"/>
<path style="fill:#b5b9bb; stroke:none;" d="M467 132L468 133L467 132z"/>
<path style="fill:#384449; stroke:none;" d="M511 132C506.673 147.021 495.893 160.004 491.637 175C489.331 183.128 491 193.586 491 202C495.298 196.813 497.354 190.018 500.258 184C504.032 176.181 509.527 167.472 511.471 159C512.501 154.511 512 149.575 512 145C512 140.74 512.661 135.959 511 132z"/>
<path style="fill:#9ba1a4; stroke:none;" d="M156 133L157 134L156 133z"/>
<path style="fill:#8c9295; stroke:none;" d="M193 133L194 134L193 133z"/>
<path style="fill:#8b9295; stroke:none;" d="M254 133L255 134L254 133z"/>
<path style="fill:#c2c5c6; stroke:none;" d="M278 133L279 134L278 133z"/>
<path style="fill:#c3c7c8; stroke:none;" d="M297 133L298 134L297 133z"/>
<path style="fill:#878d91; stroke:none;" d="M321 133L322 134L321 133z"/>
<path style="fill:#868d90; stroke:none;" d="M382 133L383 134L382 133z"/>
<path style="fill:#8f9599; stroke:none;" d="M419 133L420 134L419 133z"/>
<path style="fill:#a9aeb1; stroke:none;" d="M107 134L108 135L107 134z"/>
<path style="fill:#a4a9ab; stroke:none;" d="M340 134L341 135L340 134z"/>
<path style="fill:#a1a6a9; stroke:none;" d="M363 134L364 135L363 134z"/>
<path style="fill:#a0a5a7; stroke:none;" d="M468 134L469 135L468 134z"/>
<path style="fill:#a6aaad; stroke:none;" d="M192 135L193 136L192 135z"/>
<path style="fill:#a5aaac; stroke:none;" d="M255 135L256 136L255 135z"/>
<path style="fill:#a2a6a9; stroke:none;" d="M320 135L321 136L320 135z"/>
<path style="fill:#a0a6a9; stroke:none;" d="M383 135L384 136L383 135z"/>
<path style="fill:#c2c4c6; stroke:none;" d="M416 135L417 136L416 135z"/>
<path style="fill:#4e585d; stroke:none;" d="M157 136C154.655 141.717 150.478 147.917 149.43 154C148.675 158.377 149.998 163.516 150 168L150 205C153.035 201.243 154.608 196.331 156.752 192C163.474 178.425 174.306 162.396 167.662 147C165.442 141.855 162.534 137.558 157 136z"/>
<path style="fill:#bdc0c2; stroke:none;" d="M160 136L161 137L160 136z"/>
<path style="fill:#81888b; stroke:none;" d="M277 136L277 194C278.981 189.28 278 183.08 278 178L278 150C278 145.464 278.769 140.215 277 136z"/>
<path style="fill:#7f878a; stroke:none;" d="M298 136L298 189C299.875 184.531 299 178.809 299 174L299 149C299 144.74 299.661 139.959 298 136z"/>
<path style="fill:#b5b8ba; stroke:none;" d="M415 136L416 137L415 136z"/>
<path style="fill:#bec1c3; stroke:none;" d="M106 137L106 225C108.701 218.564 107 208.951 107 202L107 158C107 151.58 108.497 142.951 106 137z"/>
<path style="fill:#b5b9bb; stroke:none;" d="M161 137L162 138L161 137z"/>
<path style="fill:#b9bdbe; stroke:none;" d="M341 137L341 189C342.769 184.785 342 179.536 342 175L342 150C342 145.74 342.661 140.959 341 137z"/>
<path style="fill:#b8bcbe; stroke:none;" d="M362 137L362 189C363.769 184.785 363 179.536 363 175L363 150C363 145.74 363.661 140.959 362 137z"/>
<path style="fill:#adb2b4; stroke:none;" d="M414 137L415 138L414 137z"/>
<path style="fill:#bcc0c2; stroke:none;" d="M469 137L469 140C469.696 138.446 469.696 138.554 469 137z"/>
<path style="fill:#c1c4c6; stroke:none;" d="M162 138L163 139L162 138z"/>
<path style="fill:#b9bdbf; stroke:none;" d="M413 138L414 139L413 138z"/>
<path style="fill:#404b51; stroke:none;" d="M382 139C378.354 149.708 372.461 159.678 367.861 170C366.416 173.243 364.609 176.582 363.637 180C362.791 182.977 363.129 186.104 361.914 189C359.537 194.665 355.115 199.696 352.012 205C349.001 210.145 346.634 215.555 344.235 221C342.938 223.943 341.601 226.917 343.619 229.891C345.479 232.634 349.407 234.69 351.926 231.667C356.227 226.504 358.514 218.087 361.309 212C366.064 201.643 370.913 191.305 375.781 181C378.501 175.24 382.273 169.289 383.61 163C385.208 155.486 384 146.667 384 139L382 139z"/>
<path style="fill:#959b9d; stroke:none;" d="M255 141L256 142L255 141z"/>
<path style="fill:#70787c; stroke:none;" d="M411 141L412 142L411 141z"/>
<path style="fill:#afb3b6; stroke:none;" d="M165 142L166 143L165 142z"/>
<path style="fill:#a4a9ab; stroke:none;" d="M410 142L411 143L410 142z"/>
<path style="fill:#888f92; stroke:none;" d="M468 142L469 143L468 142z"/>
<path style="fill:#8b9295; stroke:none;" d="M166 144L167 145L166 144z"/>
<path style="fill:#7e8589; stroke:none;" d="M409 144L410 145L409 144z"/>
<path style="fill:#8e9397; stroke:none;" d="M467 144L468 145L467 144z"/>
<path style="fill:#a6abad; stroke:none;" d="M253 145L254 146L253 145z"/>
<path style="fill:#8c9296; stroke:none;" d="M167 146L168 147L167 146z"/>
<path style="fill:#9da2a5; stroke:none;" d="M252 146L253 147L252 146z"/>
<path style="fill:#7f868a; stroke:none;" d="M408 146L409 147L408 146z"/>
<path style="fill:#bcc0c2; stroke:none;" d="M251 147L252 148L251 147z"/>
<path style="fill:#8e9397; stroke:none;" d="M464 147L465 148L464 147z"/>
<path style="fill:#a4a8aa; stroke:none;" d="M168 148L169 149L168 148z"/>
<path style="fill:#a6abad; stroke:none;" d="M249 148L250 149L249 148z"/>
<path style="fill:#434e53; stroke:none;" d="M340 148C332.544 169.897 320.348 190.969 310.691 212C307.657 218.609 304.008 224.977 302 232C305.994 233.922 309.62 233.997 314 234C320.971 209.802 341 188.803 341 163C341 158.191 341.875 152.469 340 148z"/>
<path style="fill:#999ea1; stroke:none;" d="M407 148L408 149L407 148z"/>
<path style="fill:#888f92; stroke:none;" d="M462 148L463 149L462 148z"/>
<path style="fill:#b8bbbd; stroke:none;" d="M21 149L21 408C23.8021 401.322 22 391.216 22 384L22 332L22 150L43 150C36.7977 147.397 27.7023 149 21 149z"/>
<path style="fill:#afb2b4; stroke:none;" d="M43 149C48.959 151.5 57.5639 150 64 150C58.041 147.5 49.4362 149 43 149z"/>
<path style="fill:#bec1c3; stroke:none;" d="M128 149C131.959 150.661 136.737 150 141 150C137.041 148.339 132.263 149 128 149z"/>
<path style="fill:#bcbfc1; stroke:none;" d="M213 149L213 171L236 171C229.798 168.397 220.702 170 214 170L214 150L247 150C243.301 148.448 238.983 149 235 149L213 149z"/>
<path style="fill:#b7babc; stroke:none;" d="M435 149C441.928 151.907 452.503 150 460 150C453.072 147.093 442.497 149 435 149z"/>
<path style="fill:#ebebea; stroke:none;" d="M22 150L22 236C28.5434 228.103 32.3365 216.368 36.4244 207C38.2679 202.775 41.0831 198.615 41.787 194C43.9285 179.959 42 164.208 42 150L22 150z"/>
<path style="fill:#eaeae9; stroke:none;" d="M42 150L42 197C42 204.646 43.2289 213.509 41.6096 221C39.2966 231.699 31.8974 243.096 27.2191 253C25.3899 256.873 22.8686 260.702 22.213 265C20.6996 274.923 22 285.965 22 296L22 357L22 393C22 399.012 20.9556 406.179 22.6381 412C24.8331 419.594 31.4544 424.654 39 426C44.8945 401.242 43 374.35 43 349L43 227L43 174C43 166.784 44.8021 156.678 42 150z"/>
<path style="fill:#d7d7d7; stroke:none;" d="M43 150L43 353C49.7439 344.861 53.5688 332.631 57.8611 323C59.8835 318.462 63.0276 313.979 63.787 309C65.9765 294.645 64 278.526 64 264L64 150L43 150z"/>
<path style="fill:#9ba1a4; stroke:none;" d="M143 150L144 151L143 150z"/>
<path style="fill:#91979a; stroke:none;" d="M432 150L433 151L432 150z"/>
<path style="fill:#7a8186; stroke:none;" d="M169.333 151.667C169.278 151.722 169.222 152.778 169.667 152.333C169.722 152.278 169.778 151.222 169.333 151.667z"/>
<path style="fill:#9ba0a3; stroke:none;" d="M406 151L407 152L406 151z"/>
<path style="fill:#6b7377; stroke:none;" d="M429 152L430 153L429 152z"/>
<path style="fill:#4b555a; stroke:none;" d="M212 153C208.22 162.092 204.03 171.136 199.742 180C197.128 185.401 193.649 191.079 192.39 197C190.663 205.12 192 214.712 192 223C197.122 216.66 199.907 207.41 203.309 200C207.617 190.616 213.608 181.072 216 171C210.38 167.356 214.336 158.568 212 153z"/>
<path style="fill:#babec0; stroke:none;" d="M405.333 154.667C405.278 154.722 405.222 155.778 405.667 155.333C405.722 155.278 405.778 154.222 405.333 154.667z"/>
<path style="fill:#80878a; stroke:none;" d="M148 155L149 156L148 155z"/>
<path style="fill:#848b8f; stroke:none;" d="M170 155L170 226C172.085 221.031 171 214.35 171 209L171 174C171 168.113 172.292 160.462 170 155z"/>
<path style="fill:#747d80; stroke:none;" d="M427 155L428 156L427 155z"/>
<path style="fill:#c2c5c6; stroke:none;" d="M148 156L149 157L148 156z"/>
<path style="fill:#80878a; stroke:none;" d="M405 156L405 162C405.951 159.715 405.951 158.285 405 156z"/>
<path style="fill:#bcc0c2; stroke:none;" d="M427 156L428 157L427 156z"/>
<path style="fill:#535d62; stroke:none;" d="M84 158C79.6377 168.478 74.4296 178.681 69.6914 189C67.8958 192.911 65.308 196.756 64.3904 201C62.6394 209.1 64 218.726 64 227C68.2999 221.811 70.3474 215.017 73.2585 209C77.0058 201.254 82.7902 192.416 84.6096 184C85.5732 179.542 85 174.537 85 170C85 166.017 85.552 161.699 84 158z"/>
<path style="fill:#868c90; stroke:none;" d="M149 158L149 226C150.981 221.28 150 215.08 150 210L150 176C150 170.381 151.189 163.216 149 158z"/>
<path style="fill:#717a7e; stroke:none;" d="M426 158L426 162C426.71 160.24 426.71 159.76 426 158z"/>
<path style="fill:#374349; stroke:none;" d="M511 159C506.679 173.999 495.891 187.011 491.637 202C489.331 210.128 491 220.586 491 229C495.298 223.812 497.354 217.018 500.258 211C504.032 203.181 509.527 194.472 511.471 186C512.501 181.511 512 176.575 512 172C512 167.74 512.661 162.959 511 159z"/>
<path style="fill:#576166; stroke:none;" d="M20 160C14.128 174.123 4.40405 188.188 0.609568 203C-1.51423 211.29 0 221.471 0 230C4.32488 224.285 6.94166 216.551 9.86111 210C13.2909 202.304 18.821 194.274 20.6096 186C21.5732 181.542 21 176.537 21 172C21 168.017 21.552 163.699 20 160z"/>
<path style="fill:#444f55; stroke:none;" d="M297 160C293.048 169.492 288.078 178.56 284 188C282.572 191.307 279.904 195.251 280.615 199C282.065 206.642 290.235 214.238 294 221C297.076 216.423 298.808 210.948 301.248 206C302.446 203.57 304.239 200.833 303.907 198C303.305 192.861 298.462 189.448 298.055 184C297.495 176.513 299.926 166.974 297 160z"/>
<path style="fill:#9fa5a8; stroke:none;" d="M405 162L405 165C405.696 163.446 405.696 163.554 405 162z"/>
<path style="fill:#bcbfc1; stroke:none;" d="M427 163L428 164L427 163z"/>
<path style="fill:#4d585d; stroke:none;" d="M169 164C164.893 174.586 159.627 184.739 154.781 195C150.392 204.291 147.574 216.687 150.434 226.996C152.214 233.414 160.466 236.032 165.891 232.258C171.132 228.612 170 221.549 170 216L170 181C170 175.65 171.085 168.969 169 164z"/>
<path style="fill:#3f4b50; stroke:none;" d="M383 164C373.726 187.905 360.274 210.095 351 234C360.481 233.481 364.239 225.142 369 218C373.717 210.924 380.724 203.218 383.2 195C384.883 189.414 384 182.773 384 177C384 172.74 384.661 167.959 383 164z"/>
<path style="fill:#747c80; stroke:none;" d="M427 164L428 165L427 164z"/>
<path style="fill:#c8cbcb; stroke:none;" d="M428 165L429 166L428 165z"/>
<path style="fill:#6d7579; stroke:none;" d="M406 167L407 168L406 167z"/>
<path style="fill:#6a7277; stroke:none;" d="M429 167L430 168L429 167z"/>
<path style="fill:#9ca0a3; stroke:none;" d="M406 168L407 169L406 168z"/>
<path style="fill:#909799; stroke:none;" d="M432 169L433 170L432 169z"/>
<path style="fill:#3b464c; stroke:none;" d="M423 189C428.876 190.555 436.852 190.4 441.985 193.738C449.49 198.619 449.398 208.454 440.985 212.347C431.922 216.541 421.004 211.197 412.015 214.742C404.56 217.683 403.998 229.063 411.044 232.821C414.27 234.541 418.475 234 422 234C426.558 234 434.632 235.535 438.606 232.972C441.441 231.144 442.418 226.884 443.781 224C446.931 217.332 449.992 210.618 453.244 204C455.801 198.795 464.268 186.43 460.577 181.04C455.97 174.311 446.595 171.799 439 170.95C436.664 170.689 433.583 169.761 431.418 171.067C427.134 173.652 423.835 184.317 423 189z"/>
<path style="fill:#a6aaad; stroke:none;" d="M435.667 170.333C435.222 170.778 436.278 170.722 436.333 170.667C436.778 170.222 435.722 170.278 435.667 170.333z"/>
<path style="fill:#c3c6c7; stroke:none;" d="M437 170C438.506 170.683 439.315 170.826 441 171C439.494 170.317 438.685 170.174 437 170z"/>
<path style="fill:#4a545a; stroke:none;" d="M222 214L213 214L213 192C220.561 192 232.089 194.147 238.985 190.682C245.611 187.352 247.158 177.512 240.786 173.009C237.64 170.786 233.662 171.006 230 171C226.377 170.994 219.773 169.752 216.699 172.028C214.216 173.866 213.08 178.318 211.752 181C207.844 188.892 204.366 196.998 200.691 205C198.044 210.765 191.563 219.393 192.663 225.996C193.911 233.49 206.342 237.265 212.351 232.972C216.786 229.804 219.917 219.002 222 214z"/>
<path style="fill:#8f9698; stroke:none;" d="M238 171L239 172L238 171z"/>
<path style="fill:#999fa2; stroke:none;" d="M407 171L408 172L407 171z"/>
<path style="fill:#989ea0; stroke:none;" d="M443.667 171.333C443.222 171.778 444.278 171.722 444.333 171.667C444.778 171.222 443.722 171.278 443.667 171.333z"/>
<path style="fill:#93999d; stroke:none;" d="M240 172L241 173L240 172z"/>
<path style="fill:#7c8387; stroke:none;" d="M447 172L448 173L447 172z"/>
<path style="fill:#bfc2c3; stroke:none;" d="M448 172L449 173L448 172z"/>
<path style="fill:#505a5f; stroke:none;" d="M127 173C122.577 185.99 115.588 198.577 109.745 211C107.08 216.668 104.894 225.373 109.514 230.772C115.086 237.283 125.424 233.595 127.442 225.996C130.382 214.927 128 200.433 128 189C128 183.92 128.981 177.72 127 173z"/>
<path style="fill:#7f8789; stroke:none;" d="M408 173L409 174L408 173z"/>
<path style="fill:#9ea3a6; stroke:none;" d="M450 173L451 174L450 173z"/>
<path style="fill:#999fa1; stroke:none;" d="M452 174L453 175L452 174z"/>
<path style="fill:#939a9c; stroke:none;" d="M243 175L244 176L243 175z"/>
<path style="fill:#414c52; stroke:none;" d="M340 175C333.212 194.935 319.832 212.756 314 233C321.61 228.437 326.129 218.221 331 211C333.683 216.671 337.495 221.804 341 227C344.387 222.911 345.975 217.751 348.258 213C349.607 210.193 351.527 207.247 350.792 204C349.441 198.025 343.632 193.79 341.702 188C340.282 183.738 341.738 179.141 340 175z"/>
<path style="fill:#7f8789; stroke:none;" d="M409 175L410 176L409 175z"/>
<path style="fill:#bdc0c2; stroke:none;" d="M454 175L455 176L454 175z"/>
<path style="fill:#7d8587; stroke:none;" d="M455 176L456 177L455 176z"/>
<path style="fill:#8f9599; stroke:none;" d="M244 177L245 178L244 177z"/>
<path style="fill:#a6abad; stroke:none;" d="M410 177L411 178L410 177z"/>
<path style="fill:#71797d; stroke:none;" d="M411 178L412 179L411 178z"/>
<path style="fill:#bec0c2; stroke:none;" d="M458 178L459 179L458 178z"/>
<path style="fill:#cacdce; stroke:none;" d="M245 179L245 183C245.71 181.24 245.71 180.76 245 179z"/>
<path style="fill:#acb0b3; stroke:none;" d="M459 179L460 180L459 179z"/>
<path style="fill:#b0b4b6; stroke:none;" d="M460 180L461 181L460 180z"/>
<path style="fill:#f3f3f3; stroke:none;" d="M489 180C475.309 212.885 457.691 244.115 444 277C449.986 277 457.486 275.806 462.96 278.688C470.056 282.424 471.364 291.141 464.812 296.146C456.175 302.744 444.325 295.639 435.213 299.603C429.5 302.089 426.248 314.593 424 320L449 320C453.077 320 458.123 319.242 461.996 320.742C471.074 324.259 470.849 335.297 462.985 339.91C458.757 342.391 453.708 342 449 342L427 342C423.328 342 417.631 340.961 414.39 343.028C409.459 346.174 406.533 356.639 405 362L440 362C446.089 362 453.049 361.086 459 362.533C468.521 364.848 473.23 376.154 463.956 382.258C459.393 385.261 452.204 384 447 384L411 384C406.541 384 399.496 382.672 395.39 384.603C391.99 386.203 390.279 391.827 388.781 395C384.064 404.985 378.057 415.39 375 426L451 426C461.06 426 474.608 428.473 482.957 421.606C489.823 415.959 490 408.156 490 400L490 365L490 235L490 198C490 192.381 491.189 185.216 489 180z"/>
<path style="fill:#bcc0c2; stroke:none;" d="M413 181L414 182L413 181z"/>
<path style="fill:#bec0c2; stroke:none;" d="M461 181L462 182L461 181z"/>
<path style="fill:#adb2b4; stroke:none;" d="M414 182L415 183L414 182z"/>
<path style="fill:#babdbf; stroke:none;" d="M415 183L416 184L415 183z"/>
<path style="fill:#c4c7c8; stroke:none;" d="M416 184L417 185L416 184z"/>
<path style="fill:#3a454b; stroke:none;" d="M462 184C454.953 200.927 445.964 217.026 439 234C456.575 233.626 469.664 218.352 468.96 201C468.705 194.719 466.835 188.156 462 184z"/>
<path style="fill:#7d8488; stroke:none;" d="M463 184L464 185L463 184z"/>
<path style="fill:#525c61; stroke:none;" d="M84 185C79.6377 195.478 74.4296 205.681 69.6914 216C67.8958 219.911 65.308 223.756 64.3904 228C62.6394 236.1 64 245.726 64 254C68.2999 248.811 70.3474 242.017 73.2585 236C77.0058 228.254 82.7902 219.416 84.6096 211C85.5732 206.542 85 201.537 85 197C85 193.017 85.552 188.699 84 185z"/>
<path style="fill:#a6aaad; stroke:none;" d="M244 185L245 186L244 185z"/>
<path style="fill:#bdc1c2; stroke:none;" d="M464 185L465 186L464 185z"/>
<path style="fill:#91979a; stroke:none;" d="M419 186L420 187L419 186z"/>
<path style="fill:#364248; stroke:none;" d="M511 186C506.679 200.999 495.891 214.011 491.637 229C489.331 237.128 491 247.586 491 256C495.067 251.092 496.966 244.679 499.756 239C503.727 230.917 509.454 221.788 511.471 213C512.501 208.511 512 203.575 512 199C512 194.74 512.661 189.959 511 186z"/>
<path style="fill:#566065; stroke:none;" d="M20 187C14.128 201.123 4.40405 215.188 0.609568 230C-1.51423 238.29 0 248.471 0 257C4.32488 251.285 6.94165 243.551 9.86111 237C13.2909 229.304 18.821 221.274 20.6096 213C21.5732 208.542 21 203.537 21 199C21 195.017 21.552 190.699 20 187z"/>
<path style="fill:#bcbfc1; stroke:none;" d="M243 187L244 188L243 187z"/>
<path style="fill:#9aa0a3; stroke:none;" d="M465 187L466 188L465 187z"/>
<path style="fill:#9ca1a4; stroke:none;" d="M242 188L243 189L242 188z"/>
<path style="fill:#b8bcbe; stroke:none;" d="M422 188L423 189L422 188z"/>
<path style="fill:#9ea3a6; stroke:none;" d="M241 189L242 190L241 189z"/>
<path style="fill:#9ea3a5; stroke:none;" d="M319 189L320 190L319 189z"/>
<path style="fill:#bec1c3; stroke:none;" d="M424 189L425 190L424 189z"/>
<path style="fill:#737a7e; stroke:none;" d="M425 189L426 190L425 189z"/>
<path style="fill:#9fa4a6; stroke:none;" d="M466 189L467 190L466 189z"/>
<path style="fill:#9da3a5; stroke:none;" d="M342 190L343 191L342 190z"/>
<path style="fill:#9ca1a4; stroke:none;" d="M361 190L362 191L361 190z"/>
<path style="fill:#a5a9ab; stroke:none;" d="M427 190L428 191L427 190z"/>
<path style="fill:#939a9c; stroke:none;" d="M237 191L238 192L237 191z"/>
<path style="fill:#9ea3a6; stroke:none;" d="M300 191L301 192L300 191z"/>
<path style="fill:#a3a7aa; stroke:none;" d="M430 191C431.248 191.685 431.548 191.749 433 192C431.752 191.315 431.452 191.251 430 191z"/>
<path style="fill:#545e63; stroke:none;" d="M433 191C434.248 191.685 434.548 191.749 436 192C434.752 191.315 434.452 191.251 433 191z"/>
<path style="fill:#bfc3c4; stroke:none;" d="M467 191L468 192L467 191z"/>
<path style="fill:#bbbfc1; stroke:none;" d="M213 192L213 213C215.153 207.869 215.153 197.131 213 192z"/>
<path style="fill:#9ea3a5; stroke:none;" d="M317 192L318 193L317 192z"/>
<path style="fill:#c5c8ca; stroke:none;" d="M439 192L440 193L439 192z"/>
<path style="fill:#91979a; stroke:none;" d="M440 192L441 193L440 192z"/>
<path style="fill:#7c8487; stroke:none;" d="M467 192L468 193L467 192z"/>
<path style="fill:#9da3a5; stroke:none;" d="M344 193L345 194L344 193z"/>
<path style="fill:#9ca2a5; stroke:none;" d="M359 193L360 194L359 193z"/>
<path style="fill:#abb0b2; stroke:none;" d="M442 193L443 194L442 193z"/>
<path style="fill:#b8bcbe; stroke:none;" d="M277 194L278 195L277 194z"/>
<path style="fill:#9ea4a7; stroke:none;" d="M302 194L303 195L302 194z"/>
<path style="fill:#7b8286; stroke:none;" d="M383 194L384 195L383 194z"/>
<path style="fill:#9ea4a6; stroke:none;" d="M315 195L316 196L315 195z"/>
<path style="fill:#afb4b6; stroke:none;" d="M383 195L384 196L383 195z"/>
<path style="fill:#6f787b; stroke:none;" d="M468.333 195.667C468.278 195.722 468.222 196.778 468.667 196.333C468.722 196.278 468.778 195.222 468.333 195.667z"/>
<path style="fill:#eaeaea; stroke:none;" d="M41 196C37.2077 205.109 32.8102 214.03 28.6914 223C26.6031 227.548 23.4566 232.068 22.3904 237C20.6394 245.1 22 254.726 22 263C26.0706 258.087 28.0778 251.723 30.7809 246C34.337 238.471 39.846 230.158 41.6096 222C42.5732 217.542 42 212.537 42 208C42 204.017 42.552 199.699 41 196z"/>
<path style="fill:#82898d; stroke:none;" d="M278 196L279 197L278 196z"/>
<path style="fill:#9da2a5; stroke:none;" d="M346 196L347 197L346 196z"/>
<path style="fill:#9ca2a5; stroke:none;" d="M357 196L358 197L357 196z"/>
<path style="fill:#9ea4a7; stroke:none;" d="M304 197L305 198L304 197z"/>
<path style="fill:#a3a9aa; stroke:none;" d="M382 197L383 198L382 197z"/>
<path style="fill:#abafb1; stroke:none;" d="M446 197L447 198L446 197z"/>
<path style="fill:#9fa4a7; stroke:none;" d="M279 198L280 199L279 198z"/>
<path style="fill:#9da3a5; stroke:none;" d="M313 198L314 199L313 198z"/>
<path style="fill:#9da2a5; stroke:none;" d="M348 199L349 200L348 199z"/>
<path style="fill:#9ca1a4; stroke:none;" d="M355 199L356 200L355 199z"/>
<path style="fill:#909699; stroke:none;" d="M447 199L448 200L447 199z"/>
<path style="fill:#b8bcbe; stroke:none;" d="M469 199L469 204C469.83 201.969 469.83 201.03 469 199z"/>
<path style="fill:#9ea4a6; stroke:none;" d="M306 200L307 201L306 200z"/>
<path style="fill:#9ca2a5; stroke:none;" d="M380 200L381 201L380 200z"/>
<path style="fill:#9fa4a7; stroke:none;" d="M281 201L282 202L281 201z"/>
<path style="fill:#9da3a5; stroke:none;" d="M311 201L312 202L311 201z"/>
<path style="fill:#9da2a5; stroke:none;" d="M350 202L351 203L350 202z"/>
<path style="fill:#9ca1a4; stroke:none;" d="M353 202L354 203L353 202z"/>
<path style="fill:#9ea4a6; stroke:none;" d="M308 203L309 204L308 203z"/>
<path style="fill:#d7d8d9; stroke:none;" d="M351.667 203.333C351.222 203.778 352.278 203.722 352.333 203.667C352.778 203.222 351.722 203.278 351.667 203.333z"/>
<path style="fill:#9ca2a5; stroke:none;" d="M378 203L379 204L378 203z"/>
<path style="fill:#9fa4a7; stroke:none;" d="M283 204L284 205L283 204z"/>
<path style="fill:#858c90; stroke:none;" d="M309 204L310 205L309 204z"/>
<path style="fill:#646c71; stroke:none;" d="M351.667 204.333C351.222 204.778 352.278 204.722 352.333 204.667C352.778 204.222 351.722 204.278 351.667 204.333z"/>
<path style="fill:#d1d3d4; stroke:none;" d="M469.333 204.667C469.278 204.722 469.222 205.778 469.667 205.333C469.722 205.278 469.778 204.222 469.333 204.667z"/>
<path style="fill:#a3a8ab; stroke:none;" d="M447 205L448 206L447 205z"/>
<path style="fill:#9ca2a5; stroke:none;" d="M376 206L377 207L376 206z"/>
<path style="fill:#697275; stroke:none;" d="M447 206L448 207L447 206z"/>
<path style="fill:#9fa4a7; stroke:none;" d="M285 207L286 208L285 207z"/>
<path style="fill:#888f93; stroke:none;" d="M468.333 208.667C468.278 208.722 468.222 209.778 468.667 209.333C468.722 209.278 468.778 208.222 468.333 208.667z"/>
<path style="fill:#9da2a5; stroke:none;" d="M374 209L375 210L374 209z"/>
<path style="fill:#8e9497; stroke:none;" d="M445 209L446 210L445 209z"/>
<path style="fill:#9ea4a7; stroke:none;" d="M287 210L288 211L287 210z"/>
<path style="fill:#989da0; stroke:none;" d="M444 210L445 211L444 210z"/>
<path style="fill:#b9bdbf; stroke:none;" d="M468 210L469 211L468 210z"/>
<path style="fill:#848b8f; stroke:none;" d="M330 211L331 212L330 211z"/>
<path style="fill:#757d81; stroke:none;" d="M443 211L444 212L443 211z"/>
<path style="fill:#515b60; stroke:none;" d="M84 212C79.6377 222.478 74.4296 232.681 69.6914 243C67.8958 246.91 65.308 250.756 64.3904 255C62.6394 263.1 64 272.726 64 281C68.2999 275.811 70.3474 269.017 73.2585 263C77.0533 255.156 82.5166 246.515 84.4707 238C85.5009 233.511 85 228.575 85 224C85 220.017 85.552 215.699 84 212z"/>
<path style="fill:#9da3a5; stroke:none;" d="M331 212L332 213L331 212z"/>
<path style="fill:#9da2a5; stroke:none;" d="M372 212L373 213L372 212z"/>
<path style="fill:#8e9497; stroke:none;" d="M441 212L442 213L441 212z"/>
<path style="fill:#666f72; stroke:none;" d="M467 212L468 213L467 212z"/>
<path style="fill:#82898c; stroke:none;" d="M213 213C216.699 214.552 221.017 214 225 214L248 214C244.301 212.448 239.983 213 236 213L213 213z"/>
<path style="fill:#9ea3a6; stroke:none;" d="M289 213L290 214L289 213z"/>
<path style="fill:#969b9e; stroke:none;" d="M413.667 213.333C413.222 213.778 414.278 213.722 414.333 213.667C414.778 213.222 413.722 213.278 413.667 213.333z"/>
<path style="fill:#798084; stroke:none;" d="M415 213C421.445 215.704 431.032 214 438 214C431.555 211.296 421.968 213 415 213z"/>
<path style="fill:#aaafb1; stroke:none;" d="M467 213L468 214L467 213z"/>
<path style="fill:#364147; stroke:none;" d="M511 213C506.676 228.011 495.899 240.986 491.637 256C489.331 264.128 491 274.586 491 283C495.067 278.092 496.966 271.679 499.756 266C503.727 257.917 509.454 248.788 511.471 240C512.501 235.511 512 230.575 512 226C512 221.74 512.661 216.959 511 213z"/>
<path style="fill:#555f64; stroke:none;" d="M20 214C14.1279 228.123 4.40406 242.188 0.609568 257C-1.51423 265.29 0 275.471 0 284C4.32489 278.285 6.94165 270.551 9.86111 264C13.2909 256.304 18.821 248.274 20.6096 240C21.5732 235.542 21 230.537 21 226C21 222.017 21.552 217.699 20 214z"/>
<path style="fill:#485257; stroke:none;" d="M213 234L232 234C237.109 234 242.972 234.787 247.985 233.721C255.745 232.072 258.083 221.864 252.467 216.573C247.457 211.852 236.364 213.987 230 214C227.559 214.005 224.553 213.648 222.39 215.028C217.391 218.217 214.487 228.564 213 234z"/>
<path style="fill:#c3c6c8; stroke:none;" d="M250 214L251 215L250 214z"/>
<path style="fill:#9da3a5; stroke:none;" d="M328 214L329 215L328 214z"/>
<path style="fill:#7d8588; stroke:none;" d="M411 214L412 215L411 214z"/>
<path style="fill:#80878a; stroke:none;" d="M251 215L252 216L251 215z"/>
<path style="fill:#9da3a5; stroke:none;" d="M333 215L334 216L333 215z"/>
<path style="fill:#9da2a5; stroke:none;" d="M370 215L371 216L370 215z"/>
<path style="fill:#a8adae; stroke:none;" d="M409 215L410 216L409 215z"/>
<path style="fill:#81878b; stroke:none;" d="M466 215L467 216L466 215z"/>
<path style="fill:#9ea3a6; stroke:none;" d="M291 216L292 217L291 216z"/>
<path style="fill:#8f9699; stroke:none;" d="M408 216L409 217L408 216z"/>
<path style="fill:#767e81; stroke:none;" d="M253 217L254 218L253 217z"/>
<path style="fill:#9ea4a6; stroke:none;" d="M326 217L327 218L326 217z"/>
<path style="fill:#a8adae; stroke:none;" d="M407 217L408 218L407 217z"/>
<path style="fill:#7b8386; stroke:none;" d="M465 217L466 218L465 217z"/>
<path style="fill:#aaaeb0; stroke:none;" d="M254 218L255 219L254 218z"/>
<path style="fill:#9da2a5; stroke:none;" d="M335 218L336 219L335 218M368 218L369 219L368 218z"/>
<path style="fill:#9ea3a6; stroke:none;" d="M293 219L294 220L293 219z"/>
<path style="fill:#7e8589; stroke:none;" d="M406 219L407 220L406 219z"/>
<path style="fill:#9a9fa2; stroke:none;" d="M464 219L465 220L464 219z"/>
<path style="fill:#b5b9ba; stroke:none;" d="M255 220L256 221L255 220z"/>
<path style="fill:#9ea4a6; stroke:none;" d="M324 220L325 221L324 220z"/>
<path style="fill:#9da2a5; stroke:none;" d="M337 221L338 222L337 221M366 221L367 222L366 221z"/>
<path style="fill:#838a8e; stroke:none;" d="M405 221L405 226C405.83 223.97 405.83 223.03 405 221z"/>
<path style="fill:#9ea3a5; stroke:none;" d="M295 222L296 223L295 222z"/>
<path style="fill:#adb1b3; stroke:none;" d="M462 222L463 223L462 222z"/>
<path style="fill:#9ea4a6; stroke:none;" d="M322 223L323 224L322 223z"/>
<path style="fill:#878e91; stroke:none;" d="M461 223L462 224L461 223z"/>
<path style="fill:#9da2a5; stroke:none;" d="M339 224L340 225L339 224M364 224L365 225L364 224z"/>
<path style="fill:#798185; stroke:none;" d="M460 224L461 225L460 224z"/>
<path style="fill:#9ea3a5; stroke:none;" d="M297 225L298 226L297 225z"/>
<path style="fill:#757d81; stroke:none;" d="M459 225L460 226L459 225z"/>
<path style="fill:#868d90; stroke:none;" d="M127 226L128 227L127 226z"/>
<path style="fill:#bbbfc1; stroke:none;" d="M149 226L150 227L149 226z"/>
<path style="fill:#bcc0c1; stroke:none;" d="M170 226L171 227L170 226z"/>
<path style="fill:#81888c; stroke:none;" d="M192 226L193 227L192 226z"/>
<path style="fill:#80878b; stroke:none;" d="M255 226L256 227L255 226z"/>
<path style="fill:#9ea4a6; stroke:none;" d="M320 226L321 227L320 226z"/>
<path style="fill:#b5b8bb; stroke:none;" d="M405 226L406 227L405 226z"/>
<path style="fill:#858c8f; stroke:none;" d="M458 226L459 227L458 226z"/>
<path style="fill:#81888b; stroke:none;" d="M107 227L108 228L107 227z"/>
<path style="fill:#b9bcbf; stroke:none;" d="M127 227L128 228L127 227z"/>
<path style="fill:#b6babc; stroke:none;" d="M192 227L193 228L192 227z"/>
<path style="fill:#b6b9bc; stroke:none;" d="M255 227L256 228L255 227z"/>
<path style="fill:#9ca2a5; stroke:none;" d="M341 227L342 228L341 227z"/>
<path style="fill:#9da2a5; stroke:none;" d="M362 227L363 228L362 227z"/>
<path style="fill:#9ea4a6; stroke:none;" d="M457 227L458 228L457 227z"/>
<path style="fill:#c3c5c7; stroke:none;" d="M107 228L108 229L107 228z"/>
<path style="fill:#8a9094; stroke:none;" d="M150 228L151 229L150 228z"/>
<path style="fill:#899094; stroke:none;" d="M169 228L170 229L169 228z"/>
<path style="fill:#9ea3a5; stroke:none;" d="M299 228L300 229L299 228z"/>
<path style="fill:#7f8689; stroke:none;" d="M406 228L407 229L406 228z"/>
<path style="fill:#c8cacc; stroke:none;" d="M456 228L457 229L456 228z"/>
<path style="fill:#aeb2b5; stroke:none;" d="M126 229L127 230L126 229z"/>
<path style="fill:#abafb1; stroke:none;" d="M193 229L194 230L193 229z"/>
<path style="fill:#aaafb1; stroke:none;" d="M254 229L255 230L254 229z"/>
<path style="fill:#9da3a5; stroke:none;" d="M318 229L319 230L318 229z"/>
<path style="fill:#81878b; stroke:none;" d="M454 229L455 230L454 229z"/>
<path style="fill:#7d8488; stroke:none;" d="M125 230L126 231L125 230z"/>
<path style="fill:#b5b9bb; stroke:none;" d="M151 230L152 231L151 230z"/>
<path style="fill:#b0b4b7; stroke:none;" d="M168 230L169 231L168 230z"/>
<path style="fill:#7c8487; stroke:none;" d="M194 230L195 231L194 230z"/>
<path style="fill:#767e82; stroke:none;" d="M253 230L254 231L253 230z"/>
<path style="fill:#6f777b; stroke:none;" d="M317 230L318 231L317 230z"/>
<path style="fill:#a5a9ac; stroke:none;" d="M343 230L344 231L343 230z"/>
<path style="fill:#a7acae; stroke:none;" d="M360 230L361 231L360 230z"/>
<path style="fill:#a9aeb1; stroke:none;" d="M407 230L408 231L407 230z"/>
<path style="fill:#999ea2; stroke:none;" d="M152 231L153 232L152 231z"/>
<path style="fill:#9a9fa1; stroke:none;" d="M167 231L168 232L167 231z"/>
<path style="fill:#c6c9ca; stroke:none;" d="M301 231L302 232L301 231z"/>
<path style="fill:#8f9699; stroke:none;" d="M344 231L345 232L344 231z"/>
<path style="fill:#91979a; stroke:none;" d="M359 231L360 232L359 231z"/>
<path style="fill:#909699; stroke:none;" d="M408 231L409 232L408 231z"/>
<path style="fill:#bbbec0; stroke:none;" d="M451 231L452 232L451 231z"/>
<path style="fill:#878e91; stroke:none;" d="M123 232L124 233L123 232z"/>
<path style="fill:#b0b4b7; stroke:none;" d="M153 232L154 233L153 232z"/>
<path style="fill:#b1b5b7; stroke:none;" d="M166 232L167 233L166 232z"/>
<path style="fill:#82898c; stroke:none;" d="M196 232L197 233L196 232z"/>
<path style="fill:#81888c; stroke:none;" d="M251 232L252 233L251 232z"/>
<path style="fill:#7b8387; stroke:none;" d="M315 232L316 233L315 232z"/>
<path style="fill:#a6aaad; stroke:none;" d="M345 232L346 233L345 232z"/>
<path style="fill:#a7acae; stroke:none;" d="M358 232L359 233L358 232z"/>
<path style="fill:#a9adb0; stroke:none;" d="M409 232L410 233L409 232z"/>
<path style="fill:#81898c; stroke:none;" d="M448 232L449 233L448 232z"/>
<path style="fill:#c7cacc; stroke:none;" d="M449 232L450 233L449 232z"/>
<path style="fill:#a8adb0; stroke:none;" d="M112 233L113 234L112 233z"/>
<path style="fill:#c7c9cb; stroke:none;" d="M122 233L123 234L122 233z"/>
<path style="fill:#899092; stroke:none;" d="M155 233L156 234L155 233z"/>
<path style="fill:#899094; stroke:none;" d="M164 233L165 234L164 233z"/>
<path style="fill:#c4c7c9; stroke:none;" d="M197 233L198 234L197 233z"/>
<path style="fill:#c4c7c8; stroke:none;" d="M250 233L251 234L250 233z"/>
<path style="fill:#9da2a5; stroke:none;" d="M304 233L305 234L304 233z"/>
<path style="fill:#bdc1c2; stroke:none;" d="M314 233L315 234L314 233z"/>
<path style="fill:#7f868a; stroke:none;" d="M347 233L348 234L347 233z"/>
<path style="fill:#7f878a; stroke:none;" d="M356 233L357 234L356 233z"/>
<path style="fill:#7e8688; stroke:none;" d="M411 233L412 234L411 233z"/>
<path style="fill:#8b9194; stroke:none;" d="M445 233L446 234L445 233z"/>
<path style="fill:#bbbfc1; stroke:none;" d="M446 233L447 234L446 233z"/>
<path style="fill:#a6abad; stroke:none;" d="M114.667 234.333C114.222 234.778 115.278 234.722 115.333 234.667C115.778 234.222 114.722 234.278 114.667 234.333z"/>
<path style="fill:#8a9194; stroke:none;" d="M116 234C117.506 234.683 118.315 234.826 120 235C118.494 234.317 117.685 234.174 116 234z"/>
<path style="fill:#8c9296; stroke:none;" d="M157 234C158.769 234.779 160.036 234.912 162 235C160.231 234.221 158.964 234.088 157 234z"/>
<path style="fill:#bbbfc1; stroke:none;" d="M162 234L163 235L162 234z"/>
<path style="fill:#81888b; stroke:none;" d="M200 234C204.72 235.981 210.92 235 216 235L247 235C242.28 233.019 236.08 234 231 234L200 234z"/>
<path style="fill:#adb2b3; stroke:none;" d="M247 234L248 235L247 234z"/>
<path style="fill:#9ea3a6; stroke:none;" d="M306.667 234.333C306.222 234.778 307.278 234.722 307.333 234.667C307.778 234.222 306.722 234.278 306.667 234.333z"/>
<path style="fill:#80878a; stroke:none;" d="M308 234C309.506 234.683 310.315 234.826 312 235C310.494 234.317 309.685 234.174 308 234z"/>
<path style="fill:#81898c; stroke:none;" d="M349 234C350.769 234.779 352.036 234.912 354 235C352.231 234.221 350.964 234.088 349 234z"/>
<path style="fill:#b5b9bb; stroke:none;" d="M354 234L355 235L354 234z"/>
<path style="fill:#959c9f; stroke:none;" d="M413.667 234.333C413.222 234.778 414.278 234.722 414.333 234.667C414.778 234.222 413.722 234.278 413.667 234.333z"/>
<path style="fill:#788084; stroke:none;" d="M415 234C422.169 237.008 433.239 235 441 235C433.831 231.992 422.761 234 415 234z"/>
<path style="fill:#ccced0; stroke:none;" d="M441.667 234.333C441.222 234.778 442.278 234.722 442.333 234.667C442.778 234.222 441.722 234.278 441.667 234.333z"/>
<path style="fill:#505b60; stroke:none;" d="M84 238C79.6729 253.021 68.8935 266.004 64.6373 281C62.3306 289.128 64 299.586 64 308C68.0672 303.091 69.9643 296.679 72.7562 291C76.7463 282.884 82.4424 273.838 84.4707 265C85.5009 260.511 85 255.575 85 251C85 246.74 85.6611 241.959 84 238z"/>
<path style="fill:#354146; stroke:none;" d="M511 240C506.676 255.011 495.899 267.986 491.637 283C489.331 291.128 491 301.586 491 310C495.067 305.092 496.966 298.679 499.756 293C503.727 284.917 509.454 275.788 511.471 267C512.501 262.511 512 257.575 512 253C512 248.74 512.661 243.959 511 240z"/>
<path style="fill:#555e63; stroke:none;" d="M20 241C14.128 255.123 4.40405 269.188 0.609568 284C-1.51423 292.29 0 302.471 0 311C4.32489 305.285 6.94164 297.551 9.86111 291C13.2909 283.304 18.821 275.274 20.6096 267C21.5732 262.542 21 257.537 21 253C21 249.017 21.552 244.699 20 241z"/>
<path style="fill:#6d757a; stroke:none;" d="M114.667 256.333C114.222 256.778 115.278 256.722 115.333 256.667C115.778 256.222 114.722 256.278 114.667 256.333z"/>
<path style="fill:#4d585d; stroke:none;" d="M107 324C113.088 316.651 116.332 305.661 120.309 297C126.415 283.701 134.952 270.05 139 256C131.084 256 117.781 253.493 111.109 258.564C105.544 262.793 107 270.862 107 277L107 324z"/>
<path style="fill:#4c565b; stroke:none;" d="M130 277L147 277C149.334 276.995 152.333 277.389 154.363 275.972C159.172 272.615 162.433 261.441 164 256L147 256C144.666 256.005 141.667 255.611 139.637 257.028C134.714 260.465 131.587 271.448 130 277z"/>
<path style="fill:#4a545a; stroke:none;" d="M155 277L182 277C184.98 277 189.749 277.862 192.301 275.972C194.107 274.635 194.854 271.942 195.781 269.999C197.996 265.359 200.339 260.878 202 256L176 256C172.716 256 167.484 255.04 164.637 257.028C159.959 260.295 156.533 271.677 155 277z"/>
<path style="fill:#485257; stroke:none;" d="M193 277L219 277C222.199 277 226.776 277.78 229.61 275.972C234.824 272.646 237.704 261.521 240 256L214 256C210.67 256 205.397 255.041 202.498 257.028C197.696 260.319 194.294 271.553 193 277z"/>
<path style="fill:#455055; stroke:none;" d="M230 277L256 277L256 301C265.23 289.86 267.591 273.812 276 262C269.836 253.837 259.181 255.999 250 256C246.748 256 242.279 255.264 239.638 257.603C235.128 261.598 232.304 271.466 230 277z"/>
<path style="fill:#8f9599; stroke:none;" d="M269 256L270 257L269 256z"/>
<path style="fill:#c6cacb; stroke:none;" d="M270 256L271 257L270 256z"/>
<path style="fill:#acb1b3; stroke:none;" d="M110 258L111 259L110 258z"/>
<path style="fill:#9ca1a4; stroke:none;" d="M273 258L274 259L273 258z"/>
<path style="fill:#9da3a6; stroke:none;" d="M109 259L110 260L109 259z"/>
<path style="fill:#999ea1; stroke:none;" d="M274 259L275 260L274 259z"/>
<path style="fill:#bcbfc1; stroke:none;" d="M108 260L109 261L108 260z"/>
<path style="fill:#b9bcbe; stroke:none;" d="M275 260L276 261L275 260z"/>
<path style="fill:#a7acaf; stroke:none;" d="M107 262L108 263L107 262z"/>
<path style="fill:#434e54; stroke:none;" d="M275 262C270.016 270.541 266.164 279.969 262.139 289C260.246 293.248 257.381 297.418 256.39 302C254.639 310.1 256 319.726 256 328C260.071 323.087 262.078 316.723 264.781 311C269.713 300.559 276.98 289.768 277 278C277.009 272.843 278.224 266.256 275 262z"/>
<path style="fill:#a4a9ab; stroke:none;" d="M276 262L277 263L276 262z"/>
<path style="fill:#505a5f; stroke:none;" d="M84 265C79.6695 280.032 68.9008 292.979 64.6373 308C62.3306 316.128 64 326.586 64 335C68.0668 330.092 69.966 323.679 72.7562 318C76.7273 309.917 82.454 300.788 84.4707 292C85.5009 287.511 85 282.575 85 278C85 273.74 85.6611 268.959 84 265z"/>
<path style="fill:#bdc0c2; stroke:none;" d="M106 265L106 375C109.206 367.361 107 355.271 107 347L107 290C107 282.52 108.903 271.919 106 265z"/>
<path style="fill:#b9bdbe; stroke:none;" d="M277 265L277 375C279.903 368.081 278 357.48 278 350L278 293C278 284.729 280.206 272.639 277 265z"/>
<path style="fill:#344046; stroke:none;" d="M511 267C506.676 282.011 495.899 294.986 491.637 310C489.331 318.128 491 328.586 491 337C495.067 332.092 496.966 325.679 499.756 320C503.727 311.917 509.454 302.788 511.471 294C512.501 289.511 512 284.575 512 280C512 275.74 512.661 270.959 511 267z"/>
<path style="fill:#545e63; stroke:none;" d="M20 268C14.128 282.123 4.40405 296.188 0.609568 311C-1.51423 319.29 0 329.471 0 338C4.32489 332.285 6.94165 324.551 9.86111 318C13.2709 310.349 18.8363 302.203 20.6096 294C21.5732 289.542 21 284.537 21 280C21 276.017 21.552 271.699 20 268z"/>
<path style="fill:#507ca5; stroke:none;" d="M128 277C131.959 278.661 136.74 278 141 278L167 278L256 278C252.041 276.339 247.26 277 243 277L217 277L128 277z"/>
<path style="fill:#798185; stroke:none;" d="M307 277C311.469 278.875 317.191 278 322 278L353 278L461 278C456.531 276.125 450.809 277 446 277L415 277L307 277z"/>
<path style="fill:#5793cc; stroke:none;" d="M128 278L128 333C133.372 326.492 136.425 316.71 139.861 309C144.461 298.678 150.354 288.708 154 278L128 278z"/>
<path style="fill:#5692cc; stroke:none;" d="M128 360C134.1 352.61 137.088 341.62 141.258 333C150.033 314.864 159.259 296.594 167 278C163.496 278 158.524 277.118 155.275 278.603C152.803 279.733 151.858 282.736 150.742 285.001C148.302 289.958 146.146 295.031 143.742 300C138.64 310.544 130.869 322.519 128.39 334C126.642 342.102 128 351.725 128 360z"/>
<path style="fill:#5592cb; stroke:none;" d="M128 362C131.708 362 137.361 363.043 140.363 360.397C143.153 357.937 144.563 353.324 146 350C148.335 344.6 151.071 339.394 153.424 334C161.47 315.561 173.429 297.339 179 278C175.292 278 169.639 276.957 166.637 279.603C160.988 284.584 157.966 296.256 154.781 303C148.98 315.281 143.359 327.657 137.691 340C134.367 347.239 130.212 354.32 128 362z"/>
<path style="fill:#5591cb; stroke:none;" d="M140 362C143.748 362 150.105 363.23 153.034 360.397C155.44 358.068 156.811 353.981 158.219 351C161.348 344.375 164.494 337.715 167.424 331C175.207 313.163 184.518 295.97 192 278C188.252 278 181.895 276.77 178.966 279.603C176.301 282.182 175.025 286.679 173.576 290C171.224 295.389 168.534 300.627 166.139 306C157.763 324.795 147.908 343.005 140 362z"/>
<path style="fill:#5491cb; stroke:none;" d="M153 362C156.611 362 163.198 363.276 165.926 360.397C171.298 354.727 173.793 343.976 177.248 337C183.43 324.516 189.191 311.724 194.861 299C197.97 292.024 201.891 285.378 204 278C200.293 278 194.638 276.957 191.637 279.603C189.06 281.876 187.908 285.946 186.576 289C184.379 294.034 181.984 299.007 179.691 304C174.785 314.685 169.861 325.417 164.742 336C160.694 344.366 155.572 353.073 153 362z"/>
<path style="fill:#5390cb; stroke:none;" d="M166 362C169.619 362 175.428 363.082 178.301 360.397C183.601 355.443 186.121 344.484 189.258 338C198.789 318.301 209.084 298.403 217 278C213.272 278 206.869 276.761 203.969 279.603C201.796 281.733 200.93 285.302 199.691 288L192.691 303C186.402 316.697 179.604 330.185 173.576 344C170.953 350.011 167.526 355.574 166 362z"/>
<path style="fill:#5290ca; stroke:none;" d="M178 362C181.728 362 188.131 363.239 191.031 360.397C193.204 358.267 194.07 354.698 195.309 352L202.309 337C208.756 322.959 215.868 309.183 222 295C224.429 289.381 227.919 284.066 229 278C225.381 278 219.572 276.918 216.699 279.603C211.399 284.557 208.879 295.516 205.742 302C196.211 321.699 185.916 341.597 178 362z"/>
<path style="fill:#528fca; stroke:none;" d="M229 278C226.639 286.197 222.037 294.348 218.248 302C211.902 314.815 205.96 327.939 200.139 341C197.03 347.976 193.109 354.622 191 362C194.707 362 200.362 363.043 203.363 360.397C205.94 358.124 207.092 354.054 208.424 351C210.776 345.611 213.466 340.373 215.861 335C224.173 316.348 236.348 297.619 242 278L229 278z"/>
<path style="fill:#518fca; stroke:none;" d="M203 362C206.748 362 213.105 363.23 216.034 360.397C218.901 357.622 220.447 352.593 222 349C224.478 343.27 227.319 337.704 229.861 332C237.937 313.88 247.374 296.316 255 278C251.252 278 244.895 276.77 241.966 279.603C239.099 282.378 237.553 287.407 236 291C233.522 296.73 230.681 302.296 228.139 308C220.063 326.12 210.626 343.684 203 362z"/>
<path style="fill:#508eca; stroke:none;" d="M255 278C246.884 291.908 241.095 307.442 234.219 322C228.123 334.905 219.951 348.286 216 362L229 362C235.709 338.711 256 317.785 256 293C256 288.191 256.875 282.469 255 278z"/>
<path style="fill:#a1a6a9; stroke:none;" d="M304 278L305 279L304 278z"/>
<path style="fill:#404b51; stroke:none;" d="M343 278L315 278C310.76 278 305.671 277.327 302.279 280.434C297.535 284.779 298.308 293.714 304.055 296.821C309.287 299.65 318.214 298 324 298C326.47 298 329.39 298.391 331.787 297.682C337.536 295.981 340.895 283.063 343 278z"/>
<path style="fill:#3e494f; stroke:none;" d="M334 298L361 298C363.98 298 368.749 298.862 371.301 296.972C375.552 293.825 379.102 283.037 380 278L354 278C350.803 278 346.221 277.219 343.39 279.028C338.729 282.006 335.477 292.874 334 298z"/>
<path style="fill:#3b474c; stroke:none;" d="M380 278C377.996 284.958 373.685 290.905 372 298L398 298C401.199 298 405.776 298.78 408.61 296.972C413.541 293.826 416.467 283.361 418 278L380 278z"/>
<path style="fill:#39444a; stroke:none;" d="M409 298L434 298C442.343 298 455.172 300.414 462.957 297.258C469.021 294.799 470.628 286.069 466.486 281.228C463.537 277.781 459.134 278.007 455 278L430 278C426.722 278 421.476 277.036 418.638 279.028C414.109 282.205 411.103 292.95 409 298z"/>
<path style="fill:#9da2a5; stroke:none;" d="M463 278L464 279L463 278z"/>
<path style="fill:#c5c9ca; stroke:none;" d="M301 280L302 281L301 280z"/>
<path style="fill:#c3c6c8; stroke:none;" d="M466 280L467 281L466 280z"/>
<path style="fill:#4c575c; stroke:none;" d="M127 281C121.973 295.764 111.891 309.01 107.637 324C105.331 332.128 107 342.585 107 351C110.818 346.391 112.606 340.335 115.248 335C119.508 326.396 125.731 316.45 127.621 307C128.458 302.816 128 298.247 128 294C128 289.74 128.661 284.959 127 281z"/>
<path style="fill:#bcc0c2; stroke:none;" d="M299 283L300 284L299 283z"/>
<path style="fill:#babdbf; stroke:none;" d="M468 283L469 284L468 283z"/>
<path style="fill:#767d82; stroke:none;" d="M299 284L300 285L299 284z"/>
<path style="fill:#70787c; stroke:none;" d="M468 284L469 285L468 284z"/>
<path style="fill:#434e53; stroke:none;" d="M276 286C271.638 296.478 266.43 306.681 261.691 317C259.896 320.91 257.308 324.756 256.39 329C254.639 337.1 256 346.726 256 355C260.3 349.811 262.347 343.017 265.258 337C269.006 329.254 274.79 320.416 276.61 312C277.573 307.542 277 302.537 277 298C277 294.017 277.552 289.699 276 286z"/>
<path style="fill:#c1c4c5; stroke:none;" d="M298 286L298 290C298.71 288.24 298.71 287.76 298 286z"/>
<path style="fill:#bec1c3; stroke:none;" d="M469 286L469 290C469.71 288.24 469.71 287.76 469 286z"/>
<path style="fill:#767e81; stroke:none;" d="M299 291L300 292L299 291z"/>
<path style="fill:#71787d; stroke:none;" d="M468 291L469 292L468 291z"/>
<path style="fill:#4f595e; stroke:none;" d="M84 292C79.6757 307.011 68.8987 319.986 64.6373 335C62.3306 343.127 64 353.586 64 362C68.0668 357.092 69.966 350.679 72.7562 345C76.7273 336.917 82.454 327.788 84.4707 319C85.5009 314.511 85 309.575 85 305C85 300.74 85.6611 295.959 84 292z"/>
<path style="fill:#bec1c2; stroke:none;" d="M299 292L300 293L299 292z"/>
<path style="fill:#bbbfc1; stroke:none;" d="M468 292L469 293L468 292z"/>
<path style="fill:#646d72; stroke:none;" d="M467 293L468 294L467 293z"/>
<path style="fill:#333f45; stroke:none;" d="M511 294C506.676 309.011 495.899 321.986 491.637 337C489.331 345.128 491 355.586 491 364C495.067 359.092 496.966 352.679 499.756 347C503.727 338.917 509.454 329.788 511.471 321C512.501 316.511 512 311.575 512 307C512 302.74 512.661 297.959 511 294z"/>
<path style="fill:#535d62; stroke:none;" d="M20 295C14.1224 309.117 4.40468 323.185 0.609568 338C-1.51423 346.29 0 356.471 0 365C4.30236 358.604 7.09821 350.993 10.3086 344C13.6465 336.73 18.916 328.834 20.6096 321C21.5732 316.542 21 311.537 21 307C21 303.017 21.552 298.699 20 295z"/>
<path style="fill:#c6c9cb; stroke:none;" d="M301 295L302 296L301 295z"/>
<path style="fill:#c4c7c9; stroke:none;" d="M466 295L467 296L466 295z"/>
<path style="fill:#a1a7aa; stroke:none;" d="M304 297L305 298L304 297z"/>
<path style="fill:#9da2a5; stroke:none;" d="M463 297L464 298L463 297z"/>
<path style="fill:#9fa4a7; stroke:none;" d="M306.667 298.333C306.222 298.778 307.278 298.722 307.333 298.667C307.778 298.222 306.722 298.278 306.667 298.333z"/>
<path style="fill:#777f83; stroke:none;" d="M308 298C312.469 299.875 318.191 299 323 299L354 299L461 299C456.531 297.125 450.809 298 446 298L415 298L308 298z"/>
<path style="fill:#4f8eca; stroke:none;" d="M255 304C249.075 318.232 241.741 331.87 235.576 346C233.258 351.312 230.025 356.248 229 362L256 362L256 323C256 317.113 257.292 309.462 255 304z"/>
<path style="fill:#4c565b; stroke:none;" d="M127 308C121.973 322.764 111.891 336.01 107.637 351C105.411 358.844 107 368.881 107 377C111.477 372.567 113.548 365.659 116.219 360C120.062 351.858 125.731 342.84 127.61 334C128.56 329.533 128 324.544 128 320C128 316.017 128.552 311.699 127 308z"/>
<path style="fill:#d6d6d6; stroke:none;" d="M63 311C58.6377 321.478 53.4296 331.681 48.6914 342C46.8958 345.91 44.308 349.756 43.3904 354C41.3794 363.303 43.0006 374.495 43 384C42.9991 397.964 41.5425 412.305 39 426C48.4949 425.999 56.7574 424.353 61.5471 415C65.4429 407.392 64 397.248 64 389L64 337C64 329.256 66.0042 318.159 63 311z"/>
<path style="fill:#424d52; stroke:none;" d="M276 313C271.773 323.154 266.618 332.95 262.139 343C259.033 349.968 256.022 355.206 256 363C249.04 365.177 245.641 377.657 243 384C251.225 384 266.083 386.849 272.891 381.486C278.003 377.459 277 370.781 277 365L277 330C277 324.65 278.085 317.969 276 313z"/>
<path style="fill:#4e585d; stroke:none;" d="M84 319C79.6757 334.011 68.8987 346.986 64.6373 362C62.3306 370.127 64 380.586 64 389C68.0667 384.092 69.966 377.679 72.7562 372C76.7273 363.917 82.454 354.788 84.4707 346C85.5009 341.511 85 336.575 85 332C85 327.74 85.6611 322.959 84 319z"/>
<path style="fill:#c5c8c9; stroke:none;" d="M305 320L306 321L305 320z"/>
<path style="fill:#616b6f; stroke:none;" d="M306 320C307.248 320.685 307.548 320.749 309 321C307.752 320.315 307.452 320.251 306 320z"/>
<path style="fill:#3f4a4f; stroke:none;" d="M348 320L326 320C319.453 320 311.15 318.745 305.015 321.514C298.756 324.339 297.28 332.53 301.804 337.606C307.297 343.769 321.543 341 329 341C331.824 341 335.905 341.688 338.363 339.972C343.341 336.497 346.463 325.62 348 320z"/>
<path style="fill:#3c474d; stroke:none;" d="M339 341C345.678 341 356.635 343.12 362.775 340.397C365.348 339.255 366.207 336.355 367.308 333.999C369.472 329.371 372.096 325.07 373 320L356 320C353.686 320.005 350.651 319.598 348.649 321.028C346.765 322.373 346.044 324.992 345.139 327.001C343.035 331.671 340.422 336.063 339 341z"/>
<path style="fill:#3b464c; stroke:none;" d="M373 320C370.906 327.268 366.743 333.929 364 341L390 341C393.285 341 398.515 341.96 401.363 339.972C406.286 336.535 409.413 325.552 411 320L373 320z"/>
<path style="fill:#384449; stroke:none;" d="M402 341L430 341L448 341C452.693 341 458.579 341.915 462.957 339.91C469.392 336.963 470.847 328.201 465.772 323.279C462.026 319.646 456.825 320.002 452 320L425 320C421.281 320 414.84 318.781 411.638 321.028C407.084 324.223 403.504 335.778 402 341z"/>
<path style="fill:#878e92; stroke:none;" d="M461 320L462 321L461 320z"/>
<path style="fill:#c2c6c7; stroke:none;" d="M462 320L463 321L462 320z"/>
<path style="fill:#c8cacb; stroke:none;" d="M303 321L304 322L303 321z"/>
<path style="fill:#c6c9ca; stroke:none;" d="M464 321L465 322L464 321z"/>
<path style="fill:#323e44; stroke:none;" d="M511 321C506.676 336.011 495.899 348.986 491.637 364C489.331 372.128 491 382.586 491 391C495.067 386.092 496.966 379.679 499.756 374C503.727 365.917 509.454 356.788 511.471 348C512.501 343.511 512 338.575 512 334C512 329.74 512.661 324.959 511 321z"/>
<path style="fill:#525c61; stroke:none;" d="M20 322C16.0715 331.436 11.5861 340.755 7.21914 350C4.9165 354.875 1.74598 359.698 0.529321 365C-1.39981 373.406 0 383.399 0 392C3.90219 386.199 6.39717 379.341 9.30864 373C12.9443 365.082 18.7635 356.54 20.6096 348C21.5732 343.542 21 338.537 21 334C21 330.017 21.552 325.699 20 322z"/>
<path style="fill:#a6aaad; stroke:none;" d="M302 322L303 323L302 322z"/>
<path style="fill:#949a9d; stroke:none;" d="M465 322L466 323L465 322z"/>
<path style="fill:#959b9e; stroke:none;" d="M301 323L302 324L301 323z"/>
<path style="fill:#91979a; stroke:none;" d="M466 323L467 324L466 323z"/>
<path style="fill:#b6babc; stroke:none;" d="M300 324L301 325L300 324z"/>
<path style="fill:#b3b7b9; stroke:none;" d="M467 324L468 325L467 324z"/>
<path style="fill:#a0a6a8; stroke:none;" d="M299 326L300 327L299 326z"/>
<path style="fill:#9da3a5; stroke:none;" d="M468 326L469 327L468 326z"/>
<path style="fill:#bec0c2; stroke:none;" d="M298 329L298 332C298.696 330.446 298.696 330.554 298 329z"/>
<path style="fill:#babec0; stroke:none;" d="M469 329L469 332C469.696 330.446 469.696 330.554 469 329z"/>
<path style="fill:#899093; stroke:none;" d="M299 334L300 335L299 334z"/>
<path style="fill:#848b8f; stroke:none;" d="M468 334L469 335L468 334z"/>
<path style="fill:#4a545a; stroke:none;" d="M127 335C122.891 345.592 117.483 355.63 112.861 366C111.416 369.242 107.99 374.32 108.816 377.981C110.78 386.684 127.674 384.003 134 384C136.579 383.999 140.119 384.546 142.362 382.972C146.916 379.777 150.496 368.222 152 363L128 363C128 354.712 130.21 342.649 127 335z"/>
<path style="fill:#8e9498; stroke:none;" d="M300 336L301 337L300 336z"/>
<path style="fill:#8a9094; stroke:none;" d="M467 336L468 337L467 336z"/>
<path style="fill:#6c7579; stroke:none;" d="M301 337L302 338L301 337z"/>
<path style="fill:#626b6f; stroke:none;" d="M465 338L466 339L465 338z"/>
<path style="fill:#8e9597; stroke:none;" d="M303 339L304 340L303 339z"/>
<path style="fill:#8a9094; stroke:none;" d="M464 339L465 340L464 339z"/>
<path style="fill:#899094; stroke:none;" d="M305 340L306 341L305 340z"/>
<path style="fill:#848b8f; stroke:none;" d="M462 340L463 341L462 340z"/>
<path style="fill:#b5b9bb; stroke:none;" d="M307 341C311.469 342.875 317.191 342 322 342L353 342L460 342C455.531 340.125 449.809 341 445 341L414 341L307 341z"/>
<path style="fill:#4d585d; stroke:none;" d="M84 346C79.6757 361.011 68.8987 373.986 64.6373 389C61.9345 398.523 66.4158 408.216 60.1998 416.996C56.4332 422.317 50.4901 425.882 44 426.684C41.3189 427.016 37.8332 425.772 35.3904 427.117C30.7729 429.66 28.2982 439.254 27 444L22 443C27.7012 447.265 35.0862 448.012 42 448C44.3338 447.996 47.3339 448.389 49.3627 446.972C51.5263 445.462 52.6341 442.282 53.7415 440C56.6209 434.066 59.454 428.025 62.1389 422C70.752 402.674 85 382.496 85 361C85 356.191 85.8752 350.469 84 346z"/>
<path style="fill:#323e43; stroke:none;" d="M511 348C506.676 363.011 495.899 375.986 491.637 391C488.935 400.52 492.764 409.214 486.211 417.96C482.784 422.533 477.578 425.478 472 426.532C469.12 427.077 465.134 426.285 462.637 428.028C457.714 431.466 454.587 442.447 453 448L470 448C472.334 447.995 475.333 448.389 477.363 446.972C479.771 445.291 480.992 441.571 482.139 439C484.682 433.297 487.522 427.73 490 422C498.225 402.977 512 384.115 512 363C512 358.191 512.875 352.469 511 348z"/>
<path style="fill:#515b60; stroke:none;" d="M20 349C15.9201 358.8 11.1218 368.351 6.69136 378C4.58716 382.583 1.66757 387.04 0.529321 392C-0.500703 396.488 -0.00176479 401.426 0 406C0.00287029 413.44 0.560108 425.496 9 428C12.5115 419.566 18.6762 410.943 20.6096 402C22.6857 392.396 21 380.814 21 371C21 364.314 22.5991 355.194 20 349z"/>
<path style="fill:#507ca5; stroke:none;" d="M128 362C131.959 363.661 136.74 363 141 363L167 363L256 363C252.041 361.339 247.26 362 243 362L217 362L128 362z"/>
<path style="fill:#b5b9bb; stroke:none;" d="M307 362C311.469 363.875 317.191 363 322 363L353 363L460 363C455.531 361.125 449.809 362 445 362L414 362L307 362z"/>
<path style="fill:#485257; stroke:none;" d="M143 384L169 384C172.199 384 176.776 384.78 179.61 382.972C184.914 379.589 187.703 368.6 190 363L164 363C160.715 363 155.485 362.04 152.637 364.028C147.714 367.465 144.587 378.448 143 384z"/>
<path style="fill:#455055; stroke:none;" d="M180 384L206 384C209.436 384 214.573 384.913 217.61 382.972C222.558 379.811 225.786 368.319 228 363L202 363C198.576 363 193.414 362.08 190.394 364.028C185.562 367.143 182.182 378.759 180 384z"/>
<path style="fill:#434e53; stroke:none;" d="M218 384L235 384C237.441 383.995 240.447 384.352 242.61 382.972C247.824 379.646 250.704 368.521 253 363L236 363C233.559 363.005 230.553 362.648 228.39 364.028C223.176 367.354 220.296 378.479 218 384z"/>
<path style="fill:#888f91; stroke:none;" d="M305 363L306 364L305 363z"/>
<path style="fill:#3d484e; stroke:none;" d="M332 384C334.094 376.732 338.257 370.071 341 363L317 363C312.836 363 307.891 362.354 304.105 364.457C297.411 368.175 297.69 378.208 304.044 382.062C311.178 386.388 323.953 384 332 384z"/>
<path style="fill:#3b474c; stroke:none;" d="M332 384L358 384C361.197 384 365.779 384.781 368.61 382.972C373.558 379.811 376.786 368.319 379 363L353 363C349.612 363 344.391 362.062 341.418 364.028C336.83 367.062 332.93 378.782 332 384z"/>
<path style="fill:#39444a; stroke:none;" d="M369 384L395 384C398.33 384 403.603 384.959 406.502 382.972C411.364 379.64 414.504 368.468 416 363L390 363C386.801 363 382.224 362.22 379.39 364.028C374.176 367.354 371.296 378.479 369 384z"/>
<path style="fill:#364248; stroke:none;" d="M407 384L433 384C441.587 384 453.915 386.237 461.996 383.106C468.303 380.663 470.985 372.867 466.991 367.214C464.17 363.221 459.441 363.024 455 363.001C446.334 362.956 437.666 363 429 363C425.527 363 419.635 361.895 416.649 364.028C414.765 365.373 414.044 367.992 413.139 370.001C411.034 374.675 408.657 379.135 407 384z"/>
<path style="fill:#828a8d; stroke:none;" d="M462 363L463 364L462 363z"/>
<path style="fill:#8c9295; stroke:none;" d="M303 364L304 365L303 364z"/>
<path style="fill:#878e92; stroke:none;" d="M464 364L465 365L464 364z"/>
<path style="fill:#8c9395; stroke:none;" d="M300 367L301 368L300 367z"/>
<path style="fill:#878e91; stroke:none;" d="M467 367L468 368L467 367z"/>
<path style="fill:#898f92; stroke:none;" d="M299 369L300 370L299 369z"/>
<path style="fill:#82898d; stroke:none;" d="M468 369L469 370L468 369z"/>
<path style="fill:#c6c8ca; stroke:none;" d="M298 371L298 375C298.71 373.24 298.71 372.76 298 371z"/>
<path style="fill:#c4c7c8; stroke:none;" d="M469 371L469 375C469.71 373.24 469.71 372.76 469 371z"/>
<path style="fill:#4c575c; stroke:none;" d="M84 373C76.461 399.17 57.5432 421.815 50 448C56.6785 448 67.6353 450.12 73.7755 447.397C76.3485 446.255 77.2065 443.355 78.3079 440.999C80.4722 436.371 83.0962 432.07 84 427L80 427C84.4312 413.901 85 402.766 85 389C85 383.92 85.9806 377.72 84 373z"/>
<path style="fill:#313d43; stroke:none;" d="M511 375C503.663 400.468 485.345 422.503 478 448C494.204 442.728 507.751 432.596 511.482 415C512.832 408.633 512 401.482 512 395C512 388.846 513.395 380.707 511 375z"/>
<path style="fill:#a7acae; stroke:none;" d="M107 377L108 378L107 377z"/>
<path style="fill:#a2a7a9; stroke:none;" d="M276 377L277 378L276 377z"/>
<path style="fill:#a0a6a9; stroke:none;" d="M299 377L300 378L299 377z"/>
<path style="fill:#9ca1a4; stroke:none;" d="M468 377L469 378L468 377z"/>
<path style="fill:#bbbfc0; stroke:none;" d="M108 379L109 380L108 379z"/>
<path style="fill:#b9bdbe; stroke:none;" d="M275 379L276 380L275 379z"/>
<path style="fill:#b7babc; stroke:none;" d="M300 379L301 380L300 379z"/>
<path style="fill:#b4b8ba; stroke:none;" d="M467 379L468 380L467 379z"/>
<path style="fill:#9ca1a4; stroke:none;" d="M109 380L110 381L109 380z"/>
<path style="fill:#989da0; stroke:none;" d="M274 380L275 381L274 380z"/>
<path style="fill:#959b9d; stroke:none;" d="M301 380L302 381L301 380z"/>
<path style="fill:#91979a; stroke:none;" d="M466 380L467 381L466 380z"/>
<path style="fill:#abafb2; stroke:none;" d="M110 381L111 382L110 381z"/>
<path style="fill:#9a9fa2; stroke:none;" d="M273 381L274 382L273 381z"/>
<path style="fill:#a5a9ac; stroke:none;" d="M302 381L303 382L302 381z"/>
<path style="fill:#93999c; stroke:none;" d="M465 381L466 382L465 381z"/>
<path style="fill:#c6c9cb; stroke:none;" d="M464 382L465 383L464 382z"/>
<path style="fill:#c8cccd; stroke:none;" d="M113 383L114 384L113 383z"/>
<path style="fill:#6c7478; stroke:none;" d="M114.667 383.333C114.222 383.778 115.278 383.722 115.333 383.667C115.778 383.222 114.722 383.278 114.667 383.333z"/>
<path style="fill:#8f9598; stroke:none;" d="M269 383L270 384L269 383z"/>
<path style="fill:#c6c9ca; stroke:none;" d="M270 383L271 384L270 383z"/>
<path style="fill:#c4c8c9; stroke:none;" d="M305 383L306 384L305 383z"/>
<path style="fill:#616a6e; stroke:none;" d="M306.667 383.333C306.222 383.778 307.278 383.722 307.333 383.667C307.778 383.222 306.722 383.278 306.667 383.333z"/>
<path style="fill:#878e91; stroke:none;" d="M461 383L462 384L461 383z"/>
<path style="fill:#c2c5c7; stroke:none;" d="M462 383L463 384L462 383z"/>
<path style="fill:#505a5f; stroke:none;" d="M20 403C16.9177 410.403 13.1687 423.932 6 428C10.7649 436.243 17.6398 442.037 27 444C29.4772 437.615 33.1088 431.565 35 425C24.6675 419.839 24.05 412.385 20 403z"/>
<path style="fill:#767d82; stroke:none;" d="M21.3333 408.667C21.2778 408.722 21.2222 409.778 21.6667 409.333C21.7222 409.278 21.7778 408.222 21.3333 408.667z"/>
<path style="fill:#a1a4a5; stroke:none;" d="M63 408L63 411C63.6961 409.446 63.6961 409.554 63 408z"/>
<path style="fill:#60696d; stroke:none;" d="M490.333 408.667C490.278 408.722 490.222 409.778 490.667 409.333C490.722 409.278 490.778 408.222 490.333 408.667z"/>
<path style="fill:#c0c3c4; stroke:none;" d="M489 411L490 412L489 411z"/>
<path style="fill:#8e9597; stroke:none;" d="M22 412L23 413L22 412z"/>
<path style="fill:#9aa0a2; stroke:none;" d="M84 412L84 415C84.6961 413.446 84.6961 413.554 84 412z"/>
<path style="fill:#7d8488; stroke:none;" d="M489 412L490 413L489 412z"/>
<path style="fill:#82888b; stroke:none;" d="M62 413L63 414L62 413z"/>
<path style="fill:#a9adae; stroke:none;" d="M23 414L24 415L23 414z"/>
<path style="fill:#9da3a5; stroke:none;" d="M488 414L489 415L488 414z"/>
<path style="fill:#000000; stroke:none;" d="M0 415L0 512L512 512L512 415C505.734 426.151 501.74 435.933 490 442.907C479.705 449.022 468.493 448 457 448L401 448L112 448L56 448C44.2222 448 32.5551 449.176 22 442.907C10.26 435.933 6.26574 426.151 0 415z"/>
<path style="fill:#858c8e; stroke:none;" d="M61 415L62 416L61 415z"/>
<path style="fill:#9a9fa1; stroke:none;" d="M24 416L25 417L24 416z"/>
<path style="fill:#8c9295; stroke:none;" d="M487 416L488 417L487 416z"/>
<path style="fill:#9a9fa1; stroke:none;" d="M83 417L84 418L83 417z"/>
<path style="fill:#000080; stroke:none;" d="M1 418L2 419L1 418z"/>
<path style="fill:#888e90; stroke:none;" d="M59 418L60 419L59 418z"/>
<path style="fill:#000080; stroke:none;" d="M510 418L511 419L510 418z"/>
<path style="fill:#a1a5a7; stroke:none;" d="M58 419L59 420L58 419z"/>
<path style="fill:#636c70; stroke:none;" d="M485 419L486 420L485 419z"/>
<path style="fill:#81888c; stroke:none;" d="M27 420L28 421L27 420z"/>
<path style="fill:#a7aaab; stroke:none;" d="M57 420L58 421L57 420z"/>
<path style="fill:#9da2a5; stroke:none;" d="M82 420L83 421L82 420z"/>
<path style="fill:#70787c; stroke:none;" d="M484 420L485 421L484 420z"/>
<path style="fill:#9a9d9f; stroke:none;" d="M56 421L57 422L56 421z"/>
<path style="fill:#646c71; stroke:none;" d="M483 421L484 422L483 421z"/>
<path style="fill:#7f8688; stroke:none;" d="M55 422L56 423L55 422z"/>
<path style="fill:#7f8689; stroke:none;" d="M81 422L82 423L81 422z"/>
<path style="fill:#92989b; stroke:none;" d="M31 423L32 424L31 423z"/>
<path style="fill:#93999c; stroke:none;" d="M480 423L481 424L480 423z"/>
<path style="fill:#a6abac; stroke:none;" d="M33 424L34 425L33 424z"/>
<path style="fill:#9ea3a6; stroke:none;" d="M478 424L479 425L478 424z"/>
<path style="fill:#8c9296; stroke:none;" d="M35 425L36 426L35 425z"/>
<path style="fill:#979c9e; stroke:none;" d="M49 425L50 426L49 425z"/>
<path style="fill:#b7bbbd; stroke:none;" d="M80 425C82.1029 427.407 84.8945 426.994 88 427L105 427L178 427L473 427C464.643 423.493 451.06 426 442 426L373 426L175 426L113 426C102.331 426 90.4148 427.48 80 425z"/>
<path style="fill:#c1c4c5; stroke:none;" d="M475 425L476 426L475 425z"/>
<path style="fill:#7e8589; stroke:none;" d="M476 425L477 426L476 425z"/>
<path style="fill:#8d9294; stroke:none;" d="M38.6667 426.333C38.2222 426.778 39.2778 426.722 39.3333 426.667C39.7778 426.222 38.7222 426.278 38.6667 426.333z"/>
<path style="fill:#a6aaab; stroke:none;" d="M40 426C42.0521 426.874 43.7472 426.953 46 427C43.9479 426.126 42.2528 426.047 40 426z"/>
<path style="fill:#4a545a; stroke:none;" d="M84 427C81.9062 434.268 77.7433 440.929 75 448L101 448C104.285 448 109.515 448.96 112.363 446.972C117.172 443.615 120.433 432.441 122 427L84 427z"/>
<path style="fill:#485257; stroke:none;" d="M113 448L140 448C143.028 448 147.734 448.842 150.351 446.972C152.235 445.627 152.956 443.008 153.861 440.999C155.965 436.329 158.578 431.937 160 427L134 427C130.716 427 125.484 426.04 122.637 428.028C117.959 431.295 114.533 442.677 113 448z"/>
<path style="fill:#455055; stroke:none;" d="M151 448L177 448C180.199 448 184.776 448.78 187.61 446.972C192.824 443.646 195.704 432.521 198 427L172 427C168.715 427 163.485 426.04 160.637 428.028C155.659 431.503 152.537 442.38 151 448z"/>
<path style="fill:#434e53; stroke:none;" d="M188 448L206 448C208.28 447.995 211.345 448.42 213.301 446.972C215.107 445.635 215.854 442.942 216.781 440.999C218.996 436.359 221.339 431.878 223 427L206 427C203.56 427.005 200.551 426.647 198.39 428.028C193.442 431.189 190.214 442.681 188 448z"/>
<path style="fill:#414c52; stroke:none;" d="M214 448L231 448C233.33 447.995 236.338 448.392 238.362 446.972C242.916 443.777 246.496 432.222 248 427L231 427C228.629 427.005 225.568 426.609 223.498 428.028C218.696 431.319 215.294 442.553 214 448z"/>
<path style="fill:#3f4b50; stroke:none;" d="M239 448L277 448C279.094 440.732 283.257 434.071 286 427L260 427C256.715 427 251.485 426.04 248.637 428.028C243.714 431.465 240.587 442.448 239 448z"/>
<path style="fill:#3d484e; stroke:none;" d="M277 448L294 448C296.314 447.995 299.349 448.402 301.351 446.972C303.235 445.627 303.956 443.008 304.861 440.999C306.965 436.329 309.578 431.937 311 427C304.322 427 293.365 424.88 287.225 427.603C284.651 428.745 283.793 431.645 282.692 434.001C280.528 438.629 277.904 442.93 277 448z"/>
<path style="fill:#3b474c; stroke:none;" d="M302 448L328 448C331.199 448 335.776 448.78 338.61 446.972C343.824 443.646 346.704 432.521 349 427L323 427C319.715 427 314.485 426.04 311.637 428.028C306.659 431.503 303.537 442.38 302 448z"/>
<path style="fill:#39444a; stroke:none;" d="M339 448L365 448C368.423 448 373.586 448.92 376.606 446.972C381.438 443.857 384.818 432.241 387 427L361 427C357.564 427 352.427 426.087 349.39 428.028C344.442 431.189 341.214 442.681 339 448z"/>
<path style="fill:#364248; stroke:none;" d="M377 448L403 448C406.285 448 411.515 448.96 414.363 446.972C419.286 443.535 422.413 432.552 424 427L398 427C394.801 427 390.224 426.22 387.39 428.028C382.086 431.411 379.297 442.4 377 448z"/>
<path style="fill:#344046; stroke:none;" d="M415 448L441 448C444.278 448 449.524 448.964 452.362 446.972C456.916 443.777 460.496 432.222 462 427L436 427C432.722 427 427.476 426.036 424.638 428.028C420.084 431.223 416.504 442.778 415 448z"/>
<path style="fill:#000080; stroke:none;" d="M29 446L30 447L29 446M482 446L483 447L482 446z"/>
</svg>
